<svg viewBox="0 0 2880 1080"
    xmlns="http://www.w3.org/2000/svg" xml:space="preserve" style="fill-rule:evenodd;clip-rule:evenodd;stroke-linejoin:round;stroke-miterlimit:2">
    <path style="fill:#130f1e" d="M0 0h3840v2160H0z"/>
    <path style="fill:#ff577e" d="M515.883 199.195h124.032v109.902H515.883z" transform="matrix(1.93498 0 0 1.09188 -998.224 -217.498)"/>
    <path style="fill:#712a39" d="M515.883 199.195h124.032v109.902H515.883z" transform="matrix(1.93498 0 0 1.09188 201.776 -217.498)"/>
    <path style="fill:#79452c" d="M515.883 199.195h124.032v109.902H515.883z" transform="matrix(1.93498 0 0 1.09188 201.776 -97.498)"/>
    <path style="fill:#84723a" d="M515.883 199.195h124.032v109.902H515.883z" transform="matrix(1.93498 0 0 1.09188 201.776 22.502)"/>
    <path style="fill:#587b4a" d="M515.883 199.195h124.032v109.902H515.883z" transform="matrix(1.93498 0 0 1.09188 201.776 142.502)"/>
    <path style="fill:#4a8964" d="M515.883 199.195h124.032v109.902H515.883z" transform="matrix(1.93498 0 0 1.09188 201.776 262.502)"/>
    <path style="fill:#437e86" d="M515.883 199.195h124.032v109.902H515.883z" transform="matrix(1.93498 0 0 1.09188 201.776 382.502)"/>
    <path style="fill:#224a6d" d="M515.883 199.195h124.032v109.902H515.883z" transform="matrix(1.93498 0 0 1.09188 201.776 502.502)"/>
    <path style="fill:#3c2865" d="M515.883 199.195h124.032v109.902H515.883z" transform="matrix(1.93498 0 0 1.09188 201.776 622.502)"/>
    <path style="fill:#763b73" d="M515.883 199.195h124.032v109.902H515.883z" transform="matrix(1.93498 0 0 1.09188 201.776 742.502)"/>
    <path style="fill:#c53b5d" d="M515.883 199.195h124.032v109.902H515.883z" transform="matrix(1.93498 0 0 1.09188 441.776 -217.498)"/>
    <path style="fill:#c86634" d="M515.883 199.195h124.032v109.902H515.883z" transform="matrix(1.93498 0 0 1.09188 441.776 -97.498)"/>
    <path style="fill:#c5a330" d="M515.883 199.195h124.032v109.902H515.883z" transform="matrix(1.93498 0 0 1.09188 441.776 22.502)"/>
    <path style="fill:#76b65b" d="M515.883 199.195h124.032v109.902H515.883z" transform="matrix(1.93498 0 0 1.09188 441.776 142.502)"/>
    <path style="fill:#49c885" d="M515.883 199.195h124.032v109.902H515.883z" transform="matrix(1.93498 0 0 1.09188 441.776 262.502)"/>
    <path style="fill:#41bac8" d="M515.883 199.195h124.032v109.902H515.883z" transform="matrix(1.93498 0 0 1.09188 441.776 382.502)"/>
    <path style="fill:#2b7bbd" d="M515.883 199.195h124.032v109.902H515.883z" transform="matrix(1.93498 0 0 1.09188 441.776 502.502)"/>
    <path style="fill:#6f47bd" d="M515.883 199.195h124.032v109.902H515.883z" transform="matrix(1.93498 0 0 1.09188 441.776 622.502)"/>
    <path style="fill:#c151bc" d="M515.883 199.195h124.032v109.902H515.883z" transform="matrix(1.93498 0 0 1.09188 441.776 742.502)"/>
    <path style="fill:#ff577e" d="M515.883 199.195h124.032v109.902H515.883z" transform="matrix(1.93498 0 0 1.09188 681.776 -217.498)"/>
    <path style="fill:#ff874b" d="M515.883 199.195h124.032v109.902H515.883z" transform="matrix(1.93498 0 0 1.09188 681.776 -97.498)"/>
    <path style="fill:#f5cb40" d="M515.883 199.195h124.032v109.902H515.883z" transform="matrix(1.93498 0 0 1.09188 681.776 22.502)"/>
    <path style="fill:#96e474" d="M515.883 199.195h124.032v109.902H515.883z" transform="matrix(1.93498 0 0 1.09188 681.776 142.502)"/>
    <path style="fill:#5df8a6" d="M515.883 199.195h124.032v109.902H515.883z" transform="matrix(1.93498 0 0 1.09188 681.776 262.502)"/>
    <path style="fill:#54e7f8" d="M515.883 199.195h124.032v109.902H515.883z" transform="matrix(1.93498 0 0 1.09188 681.776 382.502)"/>
    <path style="fill:#44a3f5" d="M515.883 199.195h124.032v109.902H515.883z" transform="matrix(1.93498 0 0 1.09188 681.776 502.502)"/>
    <path style="fill:#9768f8" d="M515.883 199.195h124.032v109.902H515.883z" transform="matrix(1.93498 0 0 1.09188 681.776 622.502)"/>
    <path style="fill:#f76ef1" d="M515.883 199.195h124.032v109.902H515.883z" transform="matrix(1.93498 0 0 1.09188 681.776 742.502)"/>
    <path style="fill:#ff86a1" d="M515.883 199.195h124.032v109.902H515.883z" transform="matrix(1.93498 0 0 1.09188 921.776 -217.498)"/>
    <path style="fill:#ffae7d" d="M515.883 199.195h124.032v109.902H515.883z" transform="matrix(1.93498 0 0 1.09188 921.776 -97.498)"/>
    <path style="fill:#ffed82" d="M515.883 199.195h124.032v109.902H515.883z" transform="matrix(1.93498 0 0 1.09188 921.776 22.502)"/>
    <path style="fill:#bfffa3" d="M515.883 199.195h124.032v109.902H515.883z" transform="matrix(1.93498 0 0 1.09188 921.776 142.502)"/>
    <path style="fill:#9bffce" d="M515.883 199.195h124.032v109.902H515.883z" transform="matrix(1.93498 0 0 1.09188 921.776 262.502)"/>
    <path style="fill:#93ffff" d="M515.883 199.195h124.032v109.902H515.883z" transform="matrix(1.93498 0 0 1.09188 921.776 382.502)"/>
    <path style="fill:#76c3ff" d="M515.883 199.195h124.032v109.902H515.883z" transform="matrix(1.93498 0 0 1.09188 921.776 502.502)"/>
    <path style="fill:#b38fff" d="M515.883 199.195h124.032v109.902H515.883z" transform="matrix(1.93498 0 0 1.09188 921.776 622.502)"/>
    <path style="fill:#ff9bff" d="M515.883 199.195h124.032v109.902H515.883z" transform="matrix(1.93498 0 0 1.09188 921.776 742.502)"/>
    <path style="fill:#ffb9c5" d="M515.883 199.195h124.032v109.902H515.883z" transform="matrix(1.93498 0 0 1.09188 1161.78 -217.498)"/>
    <path style="fill:#ffd6ba" d="M515.883 199.195h124.032v109.902H515.883z" transform="matrix(1.93498 0 0 1.09188 1161.78 -97.498)"/>
    <path style="fill:#ffffcf" d="M515.883 199.195h124.032v109.902H515.883z" transform="matrix(1.93498 0 0 1.09188 1161.78 22.502)"/>
    <path style="fill:#edffde" d="M515.883 199.195h124.032v109.902H515.883z" transform="matrix(1.93498 0 0 1.09188 1161.78 142.502)"/>
    <path style="fill:#e2fffa" d="M515.883 199.195h124.032v109.902H515.883z" transform="matrix(1.93498 0 0 1.09188 1161.78 262.502)"/>
    <path style="fill:#daffff" d="M515.883 199.195h124.032v109.902H515.883z" transform="matrix(1.93498 0 0 1.09188 1161.78 382.502)"/>
    <path style="fill:#b0dbff" d="M515.883 199.195h124.032v109.902H515.883z" transform="matrix(1.93498 0 0 1.09188 1161.78 502.502)"/>
    <path style="fill:#c7b6ff" d="M515.883 199.195h124.032v109.902H515.883z" transform="matrix(1.93498 0 0 1.09188 1161.78 622.502)"/>
    <path style="fill:#ffcdff" d="M515.883 199.195h124.032v109.902H515.883z" transform="matrix(1.93498 0 0 1.09188 1161.78 742.502)"/>
    <path style="fill:#ff874b" d="M515.883 199.195h124.032v109.902H515.883z" transform="matrix(1.93498 0 0 1.09188 -998.224 -97.498)"/>
    <path style="fill:#f5cb40" d="M515.883 199.195h124.032v109.902H515.883z" transform="matrix(1.93498 0 0 1.09188 -998.224 22.502)"/>
    <path style="fill:#96e474" d="M515.883 199.195h124.032v109.902H515.883z" transform="matrix(1.93498 0 0 1.09188 -998.224 142.502)"/>
    <path style="fill:#5df8a6" d="M515.883 199.195h124.032v109.902H515.883z" transform="matrix(1.93498 0 0 1.09188 -998.224 262.502)"/>
    <path style="fill:#54e7f8" d="M515.883 199.195h124.032v109.902H515.883z" transform="matrix(1.93498 0 0 1.09188 -998.224 382.502)"/>
    <path style="fill:#44a3f5" d="M515.883 199.195h124.032v109.902H515.883z" transform="matrix(1.93498 0 0 1.09188 -998.224 502.502)"/>
    <path style="fill:#9768f8" d="M515.883 199.195h124.032v109.902H515.883z" transform="matrix(1.93498 0 0 1.09188 -998.224 622.502)"/>
    <path style="fill:#f76ef1" d="M515.883 199.195h124.032v109.902H515.883z" transform="matrix(1.93498 0 0 1.09188 -998.224 742.502)"/>
    <path style="fill:#191023" d="M515.883 199.195h124.032v109.902H515.883z" transform="matrix(1.93498 0 0 1.09188 1401.78 742.502)"/>
    <path style="fill:#130f1e" d="M515.883 199.195h124.032v109.902H515.883z" transform="matrix(1.93498 0 0 1.09188 1641.78 742.502)"/>
    <path style="fill:#322145" d="M515.883 199.195h124.032v109.902H515.883z" transform="matrix(1.93498 0 0 1.09188 1401.78 622.502)"/>
    <path style="fill:#221c35" d="M515.883 199.195h124.032v109.902H515.883z" transform="matrix(1.93498 0 0 1.09188 1641.78 622.502)"/>
    <path style="fill:#4a3168" d="M515.883 199.195h124.032v109.902H515.883z" transform="matrix(1.93498 0 0 1.09188 1401.78 502.502)"/>
    <path style="fill:#342950" d="M515.883 199.195h124.032v109.902H515.883z" transform="matrix(1.93498 0 0 1.09188 1641.78 502.502)"/>
    <path style="fill:#63428a" d="M515.883 199.195h124.032v109.902H515.883z" transform="matrix(1.93498 0 0 1.09188 1401.78 382.502)"/>
    <path style="fill:#45376a" d="M515.883 199.195h124.032v109.902H515.883z" transform="matrix(1.93498 0 0 1.09188 1641.78 382.502)"/>
    <path style="fill:#7c52ad" d="M515.883 199.195h124.032v109.902H515.883z" transform="matrix(1.93498 0 0 1.09188 1401.78 262.502)"/>
    <path style="fill:#564585" d="M515.883 199.195h124.032v109.902H515.883z" transform="matrix(1.93498 0 0 1.09188 1641.78 262.502)"/>
    <path style="fill:#9675bd" d="M515.883 199.195h124.032v109.902H515.883z" transform="matrix(1.93498 0 0 1.09188 1401.78 142.502)"/>
    <path style="fill:#786a9d" d="M515.883 199.195h124.032v109.902H515.883z" transform="matrix(1.93498 0 0 1.09188 1641.78 142.502)"/>
    <path style="fill:#b097ce" d="M515.883 199.195h124.032v109.902H515.883z" transform="matrix(1.93498 0 0 1.09188 1401.78 22.502)"/>
    <path style="fill:#9a8fb6" d="M515.883 199.195h124.032v109.902H515.883z" transform="matrix(1.93498 0 0 1.09188 1641.78 22.502)"/>
    <path style="fill:#cbbade" d="M515.883 199.195h124.032v109.902H515.883z" transform="matrix(1.93498 0 0 1.09188 1401.78 -97.498)"/>
    <path style="fill:#bbb5ce" d="M515.883 199.195h124.032v109.902H515.883z" transform="matrix(1.93498 0 0 1.09188 1641.78 -97.498)"/>
    <path style="fill:#e5dcef" d="M515.883 199.195h124.032v109.902H515.883z" transform="matrix(1.93498 0 0 1.09188 1401.78 -217.498)"/>
    <path style="fill:#dddae7" d="M515.883 199.195h124.032v109.902H515.883z" transform="matrix(1.93498 0 0 1.09188 1641.78 -217.498)"/>
    <path style="fill:#342950" d="M515.883 199.195h124.032v109.902H515.883z" transform="matrix(1.93498 0 0 1.09188 -758.224 -217.498)"/>
    <path style="fill:#342950" d="M515.883 199.195h124.032v109.902H515.883z" transform="matrix(1.93498 0 0 1.09188 -758.224 -97.498)"/>
    <path style="fill:#342950" d="M515.883 199.195h124.032v109.902H515.883z" transform="matrix(1.93498 0 0 1.09188 -758.224 22.502)"/>
    <path style="fill:#342950" d="M515.883 199.195h124.032v109.902H515.883z" transform="matrix(1.93498 0 0 1.09188 -758.224 142.502)"/>
    <path style="fill:#342950" d="M515.883 199.195h124.032v109.902H515.883z" transform="matrix(1.93498 0 0 1.09188 -758.224 262.502)"/>
    <path style="fill:#342950" d="M515.883 199.195h124.032v109.902H515.883z" transform="matrix(1.93498 0 0 1.09188 -758.224 382.502)"/>
    <path style="fill:#342950" d="M515.883 199.195h124.032v109.902H515.883z" transform="matrix(1.93498 0 0 1.09188 -758.224 502.502)"/>
    <path style="fill:#342950" d="M515.883 199.195h124.032v109.902H515.883z" transform="matrix(1.93498 0 0 1.09188 -758.224 622.502)"/>
    <path style="fill:#342950" d="M515.883 199.195h124.032v109.902H515.883z" transform="matrix(1.93498 0 0 1.09188 -758.224 742.502)"/>
    <path style="fill:#45376a" d="M515.883 199.195h124.032v109.902H515.883z" transform="matrix(1.93498 0 0 1.09188 -518.224 -217.498)"/>
    <path style="fill:#45376a" d="M515.883 199.195h124.032v109.902H515.883z" transform="matrix(1.93498 0 0 1.09188 -518.224 -97.498)"/>
    <path style="fill:#45376a" d="M515.883 199.195h124.032v109.902H515.883z" transform="matrix(1.93498 0 0 1.09188 -518.224 22.502)"/>
    <path style="fill:#45376a" d="M515.883 199.195h124.032v109.902H515.883z" transform="matrix(1.93498 0 0 1.09188 -518.224 142.502)"/>
    <path style="fill:#45376a" d="M515.883 199.195h124.032v109.902H515.883z" transform="matrix(1.93498 0 0 1.09188 -518.224 262.502)"/>
    <path style="fill:#45376a" d="M515.883 199.195h124.032v109.902H515.883z" transform="matrix(1.93498 0 0 1.09188 -518.224 382.502)"/>
    <path style="fill:#45376a" d="M515.883 199.195h124.032v109.902H515.883z" transform="matrix(1.93498 0 0 1.09188 -518.224 502.502)"/>
    <path style="fill:#45376a" d="M515.883 199.195h124.032v109.902H515.883z" transform="matrix(1.93498 0 0 1.09188 -518.224 622.502)"/>
    <path style="fill:#45376a" d="M515.883 199.195h124.032v109.902H515.883z" transform="matrix(1.93498 0 0 1.09188 -518.224 742.502)"/>
    <path style="fill:#322145" d="M515.883 199.195h124.032v109.902H515.883z" transform="matrix(1.93498 0 0 1.09188 -278.224 -217.498)"/>
    <path style="fill:#322145" d="M515.883 199.195h124.032v109.902H515.883z" transform="matrix(1.93498 0 0 1.09188 -278.224 -97.498)"/>
    <path style="fill:#322145" d="M515.883 199.195h124.032v109.902H515.883z" transform="matrix(1.93498 0 0 1.09188 -278.224 22.502)"/>
    <path style="fill:#322145" d="M515.883 199.195h124.032v109.902H515.883z" transform="matrix(1.93498 0 0 1.09188 -278.224 142.502)"/>
    <path style="fill:#322145" d="M515.883 199.195h124.032v109.902H515.883z" transform="matrix(1.93498 0 0 1.09188 -278.224 262.502)"/>
    <path style="fill:#322145" d="M515.883 199.195h124.032v109.902H515.883z" transform="matrix(1.93498 0 0 1.09188 -278.224 382.502)"/>
    <path style="fill:#322145" d="M515.883 199.195h124.032v109.902H515.883z" transform="matrix(1.93498 0 0 1.09188 -278.224 502.502)"/>
    <path style="fill:#322145" d="M515.883 199.195h124.032v109.902H515.883z" transform="matrix(1.93498 0 0 1.09188 -278.224 622.502)"/>
    <path style="fill:#322145" d="M515.883 199.195h124.032v109.902H515.883z" transform="matrix(1.93498 0 0 1.09188 -278.224 742.502)"/>
    <path style="fill:#130f1e" d="M515.883 199.195h124.032v109.902H515.883z" transform="matrix(1.93498 0 0 1.09188 -38.224 -217.498)"/>
    <path style="fill:#130f1e" d="M515.883 199.195h124.032v109.902H515.883z" transform="matrix(1.93498 0 0 1.09188 -38.224 -97.498)"/>
    <path style="fill:#130f1e" d="M515.883 199.195h124.032v109.902H515.883z" transform="matrix(1.93498 0 0 1.09188 -38.224 22.502)"/>
    <path style="fill:#130f1e" d="M515.883 199.195h124.032v109.902H515.883z" transform="matrix(1.93498 0 0 1.09188 -38.224 142.502)"/>
    <path style="fill:#130f1e" d="M515.883 199.195h124.032v109.902H515.883z" transform="matrix(1.93498 0 0 1.09188 -38.224 262.502)"/>
    <path style="fill:#130f1e" d="M515.883 199.195h124.032v109.902H515.883z" transform="matrix(1.93498 0 0 1.09188 -38.224 382.502)"/>
    <path style="fill:#130f1e" d="M515.883 199.195h124.032v109.902H515.883z" transform="matrix(1.93498 0 0 1.09188 -38.224 502.502)"/>
    <path style="fill:#130f1e" d="M515.883 199.195h124.032v109.902H515.883z" transform="matrix(1.93498 0 0 1.09188 -38.224 622.502)"/>
    <path style="fill:#130f1e" d="M515.883 199.195h124.032v109.902H515.883z" transform="matrix(1.93498 0 0 1.09188 -38.224 742.502)"/>
    <text x="554.716" y="107.808" style="font-family:'VictorMono-Medium','Victor Mono';font-weight:500;font-size:36px;fill:#130f1e" transform="translate(-464.76 -34.946)">red</text>
    <text x="515.443" y="107.808" style="font-family:'VictorMono-Medium','Victor Mono';font-weight:500;font-size:36px;fill:#ff86a1" transform="translate(736.467 -48.823)">#712a39</text>
    <text x="544.898" y="136.172" style="font-family:'VictorMono-Medium','Victor Mono';font-weight:500;font-size:24px;fill:#ff86a1" transform="translate(736.467 -48.823)">red900</text>
    <text x="525.262" y="107.808" style="font-family:'VictorMono-Medium','Victor Mono';font-weight:500;font-size:36px;fill:#130f1e" transform="translate(-464.4 79.326)">orange</text>
    <text x="515.443" y="107.808" style="font-family:'VictorMono-Medium','Victor Mono';font-weight:500;font-size:36px;fill:#ffae7d" transform="translate(736.337 69.192)">#79452c</text>
    <text x="525.262" y="136.172" style="font-family:'VictorMono-Medium','Victor Mono';font-weight:500;font-size:24px;fill:#ffae7d" transform="translate(736.337 69.192)">orange900</text>
    <text x="525.262" y="107.808" style="font-family:'VictorMono-Medium','Victor Mono';font-weight:500;font-size:36px;fill:#130f1e" transform="translate(-464.236 202.075)">yellow</text>
    <text x="515.443" y="107.808" style="font-family:'VictorMono-Medium','Victor Mono';font-weight:500;font-size:36px;fill:#ffed82" transform="translate(735.813 189.192)">#84723a</text>
    <text x="525.262" y="136.172" style="font-family:'VictorMono-Medium','Victor Mono';font-weight:500;font-size:24px;fill:#ffed82" transform="translate(735.813 189.192)">yellow900</text>
    <text x="535.08" y="107.808" style="font-family:'VictorMono-Medium','Victor Mono';font-weight:500;font-size:36px;fill:#130f1e" transform="translate(-463.991 319.326)">green</text>
    <text x="515.443" y="107.808" style="font-family:'VictorMono-Medium','Victor Mono';font-weight:500;font-size:36px;fill:#bfffa3" transform="translate(736.484 309.192)">#587b4a</text>
    <text x="531.807" y="136.172" style="font-family:'VictorMono-Medium','Victor Mono';font-weight:500;font-size:24px;fill:#bfffa3" transform="translate(736.484 309.192)">green900</text>
    <text x="544.898" y="107.808" style="font-family:'VictorMono-Medium','Victor Mono';font-weight:500;font-size:36px;fill:#130f1e" transform="translate(-464.105 445.054)">teal</text>
    <text x="515.443" y="107.808" style="font-family:'VictorMono-Medium','Victor Mono';font-weight:500;font-size:36px;fill:#9bffce" transform="translate(736.467 431.177)">#4a8964</text>
    <text x="538.353" y="136.172" style="font-family:'VictorMono-Medium','Victor Mono';font-weight:500;font-size:24px;fill:#9bffce" transform="translate(736.467 431.177)">teal900</text>
    <text x="544.898" y="107.808" style="font-family:'VictorMono-Medium','Victor Mono';font-weight:500;font-size:36px;fill:#130f1e" transform="translate(-464.105 559.326)">cyan</text>
    <text x="515.443" y="107.808" style="font-family:'VictorMono-Medium','Victor Mono';font-weight:500;font-size:36px;fill:#93ffff" transform="translate(736.647 549.192)">#437e86</text>
    <text x="538.353" y="136.172" style="font-family:'VictorMono-Medium','Victor Mono';font-weight:500;font-size:24px;fill:#93ffff" transform="translate(736.647 549.192)">cyan900</text>
    <text x="544.898" y="107.808" style="font-family:'VictorMono-Medium','Victor Mono';font-weight:500;font-size:36px;fill:#130f1e" transform="translate(-464.694 685.054)">blue</text>
    <text x="515.443" y="107.808" style="font-family:'VictorMono-Medium','Victor Mono';font-weight:500;font-size:36px;fill:#76c3ff" transform="translate(736.467 671.177)">#224a6d</text>
    <text x="538.353" y="136.172" style="font-family:'VictorMono-Medium','Victor Mono';font-weight:500;font-size:24px;fill:#76c3ff" transform="translate(736.467 671.177)">blue900</text>
    <text x="525.262" y="107.808" style="font-family:'VictorMono-Medium','Victor Mono';font-weight:500;font-size:36px;fill:#130f1e" transform="translate(-464.498 802.305)">purple</text>
    <text x="515.443" y="107.808" style="font-family:'VictorMono-Medium','Victor Mono';font-weight:500;font-size:36px;fill:#b38fff" transform="translate(736.647 789.345)">#3c2865</text>
    <text x="525.262" y="136.172" style="font-family:'VictorMono-Medium','Victor Mono';font-weight:500;font-size:24px;fill:#b38fff" transform="translate(736.647 789.345)">purple900</text>
    <text x="515.443" y="107.808" style="font-family:'VictorMono-Medium','Victor Mono';font-weight:500;font-size:36px;fill:#130f1e" transform="translate(-464.613 922.075)">magenta</text>
    <text x="515.443" y="107.808" style="font-family:'VictorMono-Medium','Victor Mono';font-weight:500;font-size:36px;fill:#cbbade" transform="translate(1936.78 429.192)">#7c52ad</text>
    <text x="551.443" y="136.172" style="font-family:'VictorMono-Medium','Victor Mono';font-weight:500;font-size:24px;fill:#cbbade" transform="translate(1936.78 429.192)">fg500</text>
    <text x="515.443" y="107.808" style="font-family:'VictorMono-Medium','Victor Mono';font-weight:500;font-size:36px;fill:#cbbade" transform="translate(2176.42 429.192)">#564585</text>
    <text x="551.443" y="136.172" style="font-family:'VictorMono-Medium','Victor Mono';font-weight:500;font-size:24px;fill:#cbbade" transform="translate(2176.42 429.192)">bg500</text>
    <text x="515.443" y="107.808" style="font-family:'VictorMono-Medium','Victor Mono';font-weight:500;font-size:36px;fill:#cbbade" transform="translate(1935.81 549.192)">#63428a</text>
    <text x="551.443" y="136.172" style="font-family:'VictorMono-Medium','Victor Mono';font-weight:500;font-size:24px;fill:#cbbade" transform="translate(1935.81 549.192)">fg600</text>
    <text x="515.443" y="107.808" style="font-family:'VictorMono-Medium','Victor Mono';font-weight:500;font-size:36px;fill:#cbbade" transform="translate(2176.65 549.192)">#45376a</text>
    <text x="551.443" y="136.172" style="font-family:'VictorMono-Medium','Victor Mono';font-weight:500;font-size:24px;fill:#cbbade" transform="translate(2176.65 549.192)">bg600</text>
    <text x="515.443" y="107.808" style="font-family:'VictorMono-Medium','Victor Mono';font-weight:500;font-size:36px;fill:#cbbade" transform="translate(1936.4 669.192)">#4a3168</text>
    <text x="551.443" y="136.172" style="font-family:'VictorMono-Medium','Victor Mono';font-weight:500;font-size:24px;fill:#cbbade" transform="translate(1936.4 669.192)">fg700</text>
    <text x="515.443" y="107.808" style="font-family:'VictorMono-Medium','Victor Mono';font-weight:500;font-size:36px;fill:#cbbade" transform="translate(2176.34 669.192)">#342950</text>
    <text x="551.443" y="136.172" style="font-family:'VictorMono-Medium','Victor Mono';font-weight:500;font-size:24px;fill:#cbbade" transform="translate(2176.34 669.192)">bg700</text>
    <text x="515.443" y="107.808" style="font-family:'VictorMono-Medium','Victor Mono';font-weight:500;font-size:36px;fill:#cbbade" transform="translate(1936.34 789.192)">#322145</text>
    <text x="551.443" y="136.172" style="font-family:'VictorMono-Medium','Victor Mono';font-weight:500;font-size:24px;fill:#cbbade" transform="translate(1936.34 789.192)">fg800</text>
    <text x="515.443" y="107.808" style="font-family:'VictorMono-Medium','Victor Mono';font-weight:500;font-size:36px;fill:#cbbade" transform="translate(2176.4 789.192)">#221c35</text>
    <text x="551.443" y="136.172" style="font-family:'VictorMono-Medium','Victor Mono';font-weight:500;font-size:24px;fill:#cbbade" transform="translate(2176.4 789.192)">bg800</text>
    <text x="515.443" y="107.808" style="font-family:'VictorMono-Medium','Victor Mono';font-weight:500;font-size:36px;fill:#cbbade" transform="translate(1936.65 909.192)">#191023</text>
    <text x="551.443" y="136.172" style="font-family:'VictorMono-Medium','Victor Mono';font-weight:500;font-size:24px;fill:#cbbade" transform="translate(1936.65 909.192)">fg900</text>
    <text x="515.443" y="107.808" style="font-family:'VictorMono-Medium','Victor Mono';font-weight:500;font-size:36px;fill:#cbbade" transform="translate(2176.48 909.192)">#130f1e</text>
    <text x="551.443" y="136.172" style="font-family:'VictorMono-Medium','Victor Mono';font-weight:500;font-size:24px;fill:#cbbade" transform="translate(2176.48 909.192)">bg900</text>
    <text x="515.443" y="107.808" style="font-family:'VictorMono-Medium','Victor Mono';font-weight:500;font-size:36px;fill:#130f1e" transform="translate(1936.78 309.192)">#9675bd</text>
    <text x="551.443" y="136.172" style="font-family:'VictorMono-Medium','Victor Mono';font-weight:500;font-size:24px;fill:#130f1e" transform="translate(1936.78 309.192)">fg400</text>
    <text x="515.443" y="107.808" style="font-family:'VictorMono-Medium','Victor Mono';font-weight:500;font-size:36px;fill:#cbbade" transform="translate(2176.78 309.192)">#786a9d</text>
    <text x="551.443" y="136.172" style="font-family:'VictorMono-Medium','Victor Mono';font-weight:500;font-size:24px;fill:#cbbade" transform="translate(2176.78 309.192)">bg400</text>
    <text x="515.443" y="107.808" style="font-family:'VictorMono-Medium','Victor Mono';font-weight:500;font-size:36px;fill:#130f1e" transform="translate(1936.48 189.192)">#b097ce</text>
    <text x="551.443" y="136.172" style="font-family:'VictorMono-Medium','Victor Mono';font-weight:500;font-size:24px;fill:#130f1e" transform="translate(1936.48 189.192)">fg300</text>
    <text x="515.443" y="107.808" style="font-family:'VictorMono-Medium','Victor Mono';font-weight:500;font-size:36px;fill:#cbbade" transform="translate(2175.81 189.192)">#9a8fb6</text>
    <text x="551.443" y="136.172" style="font-family:'VictorMono-Medium','Victor Mono';font-weight:500;font-size:24px;fill:#cbbade" transform="translate(2175.81 189.192)">bg300</text>
    <text x="515.443" y="107.808" style="font-family:'VictorMono-Medium','Victor Mono';font-weight:500;font-size:36px;fill:#130f1e" transform="translate(1936.48 68.963)">#cbbade</text>
    <text x="551.443" y="136.172" style="font-family:'VictorMono-Medium','Victor Mono';font-weight:500;font-size:24px;fill:#130f1e" transform="translate(1936.48 68.963)">fg200</text>
    <text x="515.443" y="107.808" style="font-family:'VictorMono-Medium','Victor Mono';font-weight:500;font-size:36px;fill:#cbbade" transform="translate(2176.4 69.192)">#bbb5ce</text>
    <text x="551.443" y="136.172" style="font-family:'VictorMono-Medium','Victor Mono';font-weight:500;font-size:24px;fill:#cbbade" transform="translate(2176.4 69.192)">bg200</text>
    <text x="515.443" y="107.808" style="font-family:'VictorMono-Medium','Victor Mono';font-weight:500;font-size:36px;fill:#130f1e" transform="translate(1935.99 -50.808)">#e5dcef</text>
    <text x="551.443" y="136.172" style="font-family:'VictorMono-Medium','Victor Mono';font-weight:500;font-size:24px;fill:#130f1e" transform="translate(1935.99 -50.808)">fg100</text>
    <text x="515.443" y="107.808" style="font-family:'VictorMono-Medium','Victor Mono';font-weight:500;font-size:36px;fill:#cbbade" transform="translate(2176.34 -50.808)">#dddae7</text>
    <text x="551.443" y="136.172" style="font-family:'VictorMono-Medium','Victor Mono';font-weight:500;font-size:24px;fill:#cbbade" transform="translate(2176.34 -50.808)">bg100</text>
    <text x="515.443" y="107.808" style="font-family:'VictorMono-Medium','Victor Mono';font-weight:500;font-size:36px;fill:#ff9bff" transform="translate(736.418 909.192)">#763b73</text>
    <text x="518.716" y="136.172" style="font-family:'VictorMono-Medium','Victor Mono';font-weight:500;font-size:24px;fill:#ff9bff" transform="translate(736.418 909.192)">magenta900</text>
    <text x="554.716" y="107.808" style="font-family:'VictorMono-Medium','Victor Mono';font-weight:500;font-size:36px;fill:#ff577e" transform="translate(-224.76 -34.946)">red</text>
    <text x="515.443" y="107.808" style="font-family:'VictorMono-Medium','Victor Mono';font-weight:500;font-size:36px;fill:#ff86a1" transform="translate(976.337 -48.823)">#c53b5d</text>
    <text x="544.898" y="136.172" style="font-family:'VictorMono-Medium','Victor Mono';font-weight:500;font-size:24px;fill:#ff86a1" transform="translate(976.337 -48.823)">red700</text>
    <text x="525.262" y="107.808" style="font-family:'VictorMono-Medium','Victor Mono';font-weight:500;font-size:36px;fill:#ff874b" transform="translate(-224.4 79.326)">orange</text>
    <text x="515.443" y="107.808" style="font-family:'VictorMono-Medium','Victor Mono';font-weight:500;font-size:36px;fill:#ffae7d" transform="translate(975.813 69.192)">#c86634</text>
    <text x="525.262" y="136.172" style="font-family:'VictorMono-Medium','Victor Mono';font-weight:500;font-size:24px;fill:#ffae7d" transform="translate(975.813 69.192)">orange700</text>
    <text x="525.262" y="107.808" style="font-family:'VictorMono-Medium','Victor Mono';font-weight:500;font-size:36px;fill:#f5cb40" transform="translate(-224.236 202.075)">yellow</text>
    <text x="515.443" y="107.808" style="font-family:'VictorMono-Medium','Victor Mono';font-weight:500;font-size:36px;fill:#ffed82" transform="translate(976.647 189.192)">#c5a330</text>
    <text x="525.262" y="136.172" style="font-family:'VictorMono-Medium','Victor Mono';font-weight:500;font-size:24px;fill:#ffed82" transform="translate(976.647 189.192)">yellow700</text>
    <text x="535.08" y="107.808" style="font-family:'VictorMono-Medium','Victor Mono';font-weight:500;font-size:36px;fill:#96e474" transform="translate(-223.991 319.326)">green</text>
    <text x="515.443" y="107.808" style="font-family:'VictorMono-Medium','Victor Mono';font-weight:500;font-size:36px;fill:#bfffa3" transform="translate(976.778 309.192)">#76b65b</text>
    <text x="531.807" y="136.172" style="font-family:'VictorMono-Medium','Victor Mono';font-weight:500;font-size:24px;fill:#bfffa3" transform="translate(976.778 309.192)">green700</text>
    <text x="544.898" y="107.808" style="font-family:'VictorMono-Medium','Victor Mono';font-weight:500;font-size:36px;fill:#5df8a6" transform="translate(-224.105 445.054)">teal</text>
    <text x="515.443" y="107.808" style="font-family:'VictorMono-Medium','Victor Mono';font-weight:500;font-size:36px;fill:#9bffce" transform="translate(976.337 431.177)">#49c885</text>
    <text x="538.353" y="136.172" style="font-family:'VictorMono-Medium','Victor Mono';font-weight:500;font-size:24px;fill:#9bffce" transform="translate(976.337 431.177)">teal700</text>
    <text x="544.898" y="107.808" style="font-family:'VictorMono-Medium','Victor Mono';font-weight:500;font-size:36px;fill:#54e7f8" transform="translate(-224.105 559.326)">cyan</text>
    <text x="515.443" y="107.808" style="font-family:'VictorMono-Medium','Victor Mono';font-weight:500;font-size:36px;fill:#93ffff" transform="translate(976.533 549.192)">#41bac8</text>
    <text x="538.353" y="136.172" style="font-family:'VictorMono-Medium','Victor Mono';font-weight:500;font-size:24px;fill:#93ffff" transform="translate(976.533 549.192)">cyan700</text>
    <text x="544.898" y="107.808" style="font-family:'VictorMono-Medium','Victor Mono';font-weight:500;font-size:36px;fill:#44a3f5" transform="translate(-224.694 685.054)">blue</text>
    <text x="515.443" y="107.808" style="font-family:'VictorMono-Medium','Victor Mono';font-weight:500;font-size:36px;fill:#76c3ff" transform="translate(976.418 671.177)">#2b7bbd</text>
    <text x="538.353" y="136.172" style="font-family:'VictorMono-Medium','Victor Mono';font-weight:500;font-size:24px;fill:#76c3ff" transform="translate(976.418 671.177)">blue700</text>
    <text x="525.262" y="107.808" style="font-family:'VictorMono-Medium','Victor Mono';font-weight:500;font-size:36px;fill:#9768f8" transform="translate(-224.498 802.305)">purple</text>
    <text x="515.443" y="107.808" style="font-family:'VictorMono-Medium','Victor Mono';font-weight:500;font-size:36px;fill:#b38fff" transform="translate(976.533 789.345)">#6f47bd</text>
    <text x="525.262" y="136.172" style="font-family:'VictorMono-Medium','Victor Mono';font-weight:500;font-size:24px;fill:#b38fff" transform="translate(976.533 789.345)">purple700</text>
    <text x="515.443" y="107.808" style="font-family:'VictorMono-Medium','Victor Mono';font-weight:500;font-size:36px;fill:#f76ef1" transform="translate(-224.613 922.075)">magenta</text>
    <text x="515.443" y="107.808" style="font-family:'VictorMono-Medium','Victor Mono';font-weight:500;font-size:36px;fill:#ff9bff" transform="translate(977.498 909.192)">#c151bc</text>
    <text x="518.716" y="136.172" style="font-family:'VictorMono-Medium','Victor Mono';font-weight:500;font-size:24px;fill:#ff9bff" transform="translate(977.498 909.192)">magenta700</text>
    <text x="554.716" y="107.808" style="font-family:'VictorMono-Medium','Victor Mono';font-weight:500;font-size:36px;fill:#ff577e" transform="translate(15.24 -34.946)">red</text>
    <text x="515.443" y="107.808" style="font-family:'VictorMono-Medium','Victor Mono';font-weight:500;font-size:36px;fill:#712a39" transform="translate(1216.48 -48.823)">#ff577e</text>
    <text x="544.898" y="136.172" style="font-family:'VictorMono-Medium','Victor Mono';font-weight:500;font-size:24px;fill:#712a39" transform="translate(1216.48 -48.823)">red500</text>
    <text x="525.262" y="107.808" style="font-family:'VictorMono-Medium','Victor Mono';font-weight:500;font-size:36px;fill:#ff874b" transform="translate(15.6 79.326)">orange</text>
    <text x="515.443" y="107.808" style="font-family:'VictorMono-Medium','Victor Mono';font-weight:500;font-size:36px;fill:#79452c" transform="translate(1216.58 69.192)">#ff874b</text>
    <text x="525.262" y="136.172" style="font-family:'VictorMono-Medium','Victor Mono';font-weight:500;font-size:24px;fill:#79452c" transform="translate(1216.58 69.192)">orange500</text>
    <text x="525.262" y="107.808" style="font-family:'VictorMono-Medium','Victor Mono';font-weight:500;font-size:36px;fill:#f5cb40" transform="translate(15.764 202.075)">yellow</text>
    <text x="515.443" y="107.808" style="font-family:'VictorMono-Medium','Victor Mono';font-weight:500;font-size:36px;fill:#84723a" transform="translate(1216.42 189.192)">#f5cb40</text>
    <text x="525.262" y="136.172" style="font-family:'VictorMono-Medium','Victor Mono';font-weight:500;font-size:24px;fill:#84723a" transform="translate(1216.42 189.192)">yellow500</text>
    <text x="535.08" y="107.808" style="font-family:'VictorMono-Medium','Victor Mono';font-weight:500;font-size:36px;fill:#96e474" transform="translate(16.01 319.326)">green</text>
    <text x="515.443" y="107.808" style="font-family:'VictorMono-Medium','Victor Mono';font-weight:500;font-size:36px;fill:#587b4a" transform="translate(1216.42 309.192)">#96e474</text>
    <text x="531.807" y="136.172" style="font-family:'VictorMono-Medium','Victor Mono';font-weight:500;font-size:24px;fill:#587b4a" transform="translate(1216.42 309.192)">green500</text>
    <text x="544.898" y="107.808" style="font-family:'VictorMono-Medium','Victor Mono';font-weight:500;font-size:36px;fill:#5df8a6" transform="translate(15.895 445.054)">teal</text>
    <text x="515.443" y="107.808" style="font-family:'VictorMono-Medium','Victor Mono';font-weight:500;font-size:36px;fill:#4a8964" transform="translate(1216.53 431.177)">#5df8a6</text>
    <text x="538.353" y="136.172" style="font-family:'VictorMono-Medium','Victor Mono';font-weight:500;font-size:24px;fill:#4a8964" transform="translate(1216.53 431.177)">teal500</text>
    <text x="544.898" y="107.808" style="font-family:'VictorMono-Medium','Victor Mono';font-weight:500;font-size:36px;fill:#54e7f8" transform="translate(15.895 559.326)">cyan</text>
    <text x="515.443" y="107.808" style="font-family:'VictorMono-Medium','Victor Mono';font-weight:500;font-size:36px;fill:#437e86" transform="translate(1216.4 549.192)">#54e7f8</text>
    <text x="538.353" y="136.172" style="font-family:'VictorMono-Medium','Victor Mono';font-weight:500;font-size:24px;fill:#437e86" transform="translate(1216.4 549.192)">cyan500</text>
    <text x="544.898" y="107.808" style="font-family:'VictorMono-Medium','Victor Mono';font-weight:500;font-size:36px;fill:#44a3f5" transform="translate(15.306 685.054)">blue</text>
    <text x="515.443" y="107.808" style="font-family:'VictorMono-Medium','Victor Mono';font-weight:500;font-size:36px;fill:#224a6d" transform="translate(1216.34 671.177)">#44a3f5</text>
    <text x="538.353" y="136.172" style="font-family:'VictorMono-Medium','Victor Mono';font-weight:500;font-size:24px;fill:#224a6d" transform="translate(1216.34 671.177)">blue500</text>
    <text x="525.262" y="107.808" style="font-family:'VictorMono-Medium','Victor Mono';font-weight:500;font-size:36px;fill:#9768f8" transform="translate(15.502 802.305)">purple</text>
    <text x="515.443" y="107.808" style="font-family:'VictorMono-Medium','Victor Mono';font-weight:500;font-size:36px;fill:#3c2865" transform="translate(1216.4 789.345)">#9768f8</text>
    <text x="525.262" y="136.172" style="font-family:'VictorMono-Medium','Victor Mono';font-weight:500;font-size:24px;fill:#3c2865" transform="translate(1216.4 789.345)">purple500</text>
    <text x="515.443" y="107.808" style="font-family:'VictorMono-Medium','Victor Mono';font-weight:500;font-size:36px;fill:#f76ef1" transform="translate(15.387 922.075)">magenta</text>
    <text x="515.443" y="107.808" style="font-family:'VictorMono-Medium','Victor Mono';font-weight:500;font-size:36px;fill:#763b73" transform="translate(1217.5 909.192)">#f76ef1</text>
    <text x="518.716" y="136.172" style="font-family:'VictorMono-Medium','Victor Mono';font-weight:500;font-size:24px;fill:#763b73" transform="translate(1217.5 909.192)">magenta500</text>
    <text x="554.716" y="107.808" style="font-family:'VictorMono-Medium','Victor Mono';font-weight:500;font-size:36px;fill:#ff577e" transform="translate(255.24 -34.946)">red</text>
    <text x="515.443" y="107.808" style="font-family:'VictorMono-Medium','Victor Mono';font-weight:500;font-size:36px;fill:#c53b5d" transform="translate(1456.4 -48.823)">#ff86a1</text>
    <text x="544.898" y="136.172" style="font-family:'VictorMono-Medium','Victor Mono';font-weight:500;font-size:24px;fill:#c53b5d" transform="translate(1456.4 -48.823)">red300</text>
    <text x="525.262" y="107.808" style="font-family:'VictorMono-Medium','Victor Mono';font-weight:500;font-size:36px;fill:#ff874b" transform="translate(255.6 79.326)">orange</text>
    <text x="515.443" y="107.808" style="font-family:'VictorMono-Medium','Victor Mono';font-weight:500;font-size:36px;fill:#c86634" transform="translate(1456.78 69.192)">#ffae7d</text>
    <text x="525.262" y="136.172" style="font-family:'VictorMono-Medium','Victor Mono';font-weight:500;font-size:24px;fill:#c86634" transform="translate(1456.78 69.192)">orange300</text>
    <text x="525.262" y="107.808" style="font-family:'VictorMono-Medium','Victor Mono';font-weight:500;font-size:36px;fill:#f5cb40" transform="translate(255.764 202.075)">yellow</text>
    <text x="515.443" y="107.808" style="font-family:'VictorMono-Medium','Victor Mono';font-weight:500;font-size:36px;fill:#c5a330" transform="translate(1456.53 189.192)">#ffed82</text>
    <text x="525.262" y="136.172" style="font-family:'VictorMono-Medium','Victor Mono';font-weight:500;font-size:24px;fill:#c5a330" transform="translate(1456.53 189.192)">yellow300</text>
    <text x="535.08" y="107.808" style="font-family:'VictorMono-Medium','Victor Mono';font-weight:500;font-size:36px;fill:#96e474" transform="translate(256.009 319.326)">green</text>
    <text x="515.443" y="107.808" style="font-family:'VictorMono-Medium','Victor Mono';font-weight:500;font-size:36px;fill:#76b65b" transform="translate(1456.42 309.192)">#bfffa3</text>
    <text x="531.807" y="136.172" style="font-family:'VictorMono-Medium','Victor Mono';font-weight:500;font-size:24px;fill:#76b65b" transform="translate(1456.42 309.192)">green300</text>
    <text x="544.898" y="107.808" style="font-family:'VictorMono-Medium','Victor Mono';font-weight:500;font-size:36px;fill:#5df8a6" transform="translate(255.895 445.054)">teal</text>
    <text x="515.443" y="107.808" style="font-family:'VictorMono-Medium','Victor Mono';font-weight:500;font-size:36px;fill:#49c885" transform="translate(1456.4 431.177)">#9bffce</text>
    <text x="538.353" y="136.172" style="font-family:'VictorMono-Medium','Victor Mono';font-weight:500;font-size:24px;fill:#49c885" transform="translate(1456.4 431.177)">teal300</text>
    <text x="544.898" y="107.808" style="font-family:'VictorMono-Medium','Victor Mono';font-weight:500;font-size:36px;fill:#54e7f8" transform="translate(255.895 559.326)">cyan</text>
    <text x="515.443" y="107.808" style="font-family:'VictorMono-Medium','Victor Mono';font-weight:500;font-size:36px;fill:#41bac8" transform="translate(1456.53 549.192)">#93ffff</text>
    <text x="538.353" y="136.172" style="font-family:'VictorMono-Medium','Victor Mono';font-weight:500;font-size:24px;fill:#41bac8" transform="translate(1456.53 549.192)">cyan300</text>
    <text x="544.898" y="107.808" style="font-family:'VictorMono-Medium','Victor Mono';font-weight:500;font-size:36px;fill:#44a3f5" transform="translate(255.306 685.054)">blue</text>
    <text x="515.443" y="107.808" style="font-family:'VictorMono-Medium','Victor Mono';font-weight:500;font-size:36px;fill:#2b7bbd" transform="translate(1456.57 671.177)">#76c3ff</text>
    <text x="538.353" y="136.172" style="font-family:'VictorMono-Medium','Victor Mono';font-weight:500;font-size:24px;fill:#2b7bbd" transform="translate(1456.57 671.177)">blue300</text>
    <text x="525.262" y="107.808" style="font-family:'VictorMono-Medium','Victor Mono';font-weight:500;font-size:36px;fill:#9768f8" transform="translate(255.502 802.305)">purple</text>
    <text x="515.443" y="107.808" style="font-family:'VictorMono-Medium','Victor Mono';font-weight:500;font-size:36px;fill:#6f47bd" transform="translate(1456.53 789.345)">#b38fff</text>
    <text x="525.262" y="136.172" style="font-family:'VictorMono-Medium','Victor Mono';font-weight:500;font-size:24px;fill:#6f47bd" transform="translate(1456.53 789.345)">purple300</text>
    <text x="515.443" y="107.808" style="font-family:'VictorMono-Medium','Victor Mono';font-weight:500;font-size:36px;fill:#f76ef1" transform="translate(255.387 922.075)">magenta</text>
    <text x="515.443" y="107.808" style="font-family:'VictorMono-Medium','Victor Mono';font-weight:500;font-size:36px;fill:#c151bc" transform="translate(1456.42 909.192)">#ff9bff</text>
    <text x="518.716" y="136.172" style="font-family:'VictorMono-Medium','Victor Mono';font-weight:500;font-size:24px;fill:#c151bc" transform="translate(1456.42 909.192)">magenta300</text>
    <text x="554.716" y="107.808" style="font-family:'VictorMono-Medium','Victor Mono';font-weight:500;font-size:36px;fill:#ff577e" transform="translate(495.24 -34.946)">red</text>
    <text x="515.443" y="107.808" style="font-family:'VictorMono-Medium','Victor Mono';font-weight:500;font-size:36px;fill:#c53b5d" transform="translate(1696.63 -48.823)">#ffb9c5</text>
    <text x="544.898" y="136.172" style="font-family:'VictorMono-Medium','Victor Mono';font-weight:500;font-size:24px;fill:#c53b5d" transform="translate(1696.63 -48.823)">red100</text>
    <text x="525.262" y="107.808" style="font-family:'VictorMono-Medium','Victor Mono';font-weight:500;font-size:36px;fill:#ff874b" transform="translate(495.6 79.326)">orange</text>
    <text x="515.443" y="107.808" style="font-family:'VictorMono-Medium','Victor Mono';font-weight:500;font-size:36px;fill:#c86634" transform="translate(1696.48 69.192)">#ffd6ba</text>
    <text x="525.262" y="136.172" style="font-family:'VictorMono-Medium','Victor Mono';font-weight:500;font-size:24px;fill:#c86634" transform="translate(1696.48 69.192)">orange100</text>
    <text x="525.262" y="107.808" style="font-family:'VictorMono-Medium','Victor Mono';font-weight:500;font-size:36px;fill:#f5cb40" transform="translate(495.764 202.075)">yellow</text>
    <text x="515.443" y="107.808" style="font-family:'VictorMono-Medium','Victor Mono';font-weight:500;font-size:36px;fill:#c5a330" transform="translate(1696.65 189.192)">#ffffcf</text>
    <text x="525.262" y="136.172" style="font-family:'VictorMono-Medium','Victor Mono';font-weight:500;font-size:24px;fill:#c5a330" transform="translate(1696.65 189.192)">yellow100</text>
    <text x="535.08" y="107.808" style="font-family:'VictorMono-Medium','Victor Mono';font-weight:500;font-size:36px;fill:#96e474" transform="translate(496.009 319.326)">green</text>
    <text x="515.443" y="107.808" style="font-family:'VictorMono-Medium','Victor Mono';font-weight:500;font-size:36px;fill:#76b65b" transform="translate(1696.57 309.192)">#edffde</text>
    <text x="531.807" y="136.172" style="font-family:'VictorMono-Medium','Victor Mono';font-weight:500;font-size:24px;fill:#76b65b" transform="translate(1696.57 309.192)">green100</text>
    <text x="544.898" y="107.808" style="font-family:'VictorMono-Medium','Victor Mono';font-weight:500;font-size:36px;fill:#5df8a6" transform="translate(495.895 445.054)">teal</text>
    <text x="515.443" y="107.808" style="font-family:'VictorMono-Medium','Victor Mono';font-weight:500;font-size:36px;fill:#49c885" transform="translate(1696.63 431.177)">#e2fffa</text>
    <text x="538.353" y="136.172" style="font-family:'VictorMono-Medium','Victor Mono';font-weight:500;font-size:24px;fill:#49c885" transform="translate(1696.63 431.177)">teal100</text>
    <text x="544.898" y="107.808" style="font-family:'VictorMono-Medium','Victor Mono';font-weight:500;font-size:36px;fill:#54e7f8" transform="translate(495.895 559.326)">cyan</text>
    <text x="515.443" y="107.808" style="font-family:'VictorMono-Medium','Victor Mono';font-weight:500;font-size:36px;fill:#41bac8" transform="translate(1696.58 549.192)">#daffff</text>
    <text x="538.353" y="136.172" style="font-family:'VictorMono-Medium','Victor Mono';font-weight:500;font-size:24px;fill:#41bac8" transform="translate(1696.58 549.192)">cyan100</text>
    <text x="544.898" y="107.808" style="font-family:'VictorMono-Medium','Victor Mono';font-weight:500;font-size:36px;fill:#44a3f5" transform="translate(495.306 685.054)">blue</text>
    <text x="515.443" y="107.808" style="font-family:'VictorMono-Medium','Victor Mono';font-weight:500;font-size:36px;fill:#2b7bbd" transform="translate(1696.63 671.177)">#b0dbff</text>
    <text x="538.353" y="136.172" style="font-family:'VictorMono-Medium','Victor Mono';font-weight:500;font-size:24px;fill:#2b7bbd" transform="translate(1696.63 671.177)">blue100</text>
    <text x="525.262" y="107.808" style="font-family:'VictorMono-Medium','Victor Mono';font-weight:500;font-size:36px;fill:#9768f8" transform="translate(495.502 802.305)">purple</text>
    <text x="515.443" y="107.808" style="font-family:'VictorMono-Medium','Victor Mono';font-weight:500;font-size:36px;fill:#6f47bd" transform="translate(1696.58 789.345)">#c7b6ff</text>
    <text x="525.262" y="136.172" style="font-family:'VictorMono-Medium','Victor Mono';font-weight:500;font-size:24px;fill:#6f47bd" transform="translate(1696.58 789.345)">purple100</text>
    <text x="515.443" y="107.808" style="font-family:'VictorMono-Medium','Victor Mono';font-weight:500;font-size:36px;fill:#f76ef1" transform="translate(495.387 922.075)">magenta</text>
    <text x="515.443" y="107.808" style="font-family:'VictorMono-Medium','Victor Mono';font-weight:500;font-size:36px;fill:#c151bc" transform="translate(1696.53 909.192)">#ffcdff</text>
    <text x="518.716" y="136.172" style="font-family:'VictorMono-Medium','Victor Mono';font-weight:500;font-size:24px;fill:#c151bc" transform="translate(1696.53 909.192)">magenta100</text>
</svg>
