<svg viewBox="0 0 2880 1080"
    xmlns="http://www.w3.org/2000/svg" xml:space="preserve" style="fill-rule:evenodd;clip-rule:evenodd;stroke-linejoin:round;stroke-miterlimit:2">
    <path style="fill:#17131e" d="M0 0h3840v2160H0z"/>
    <path style="fill:#ff577e" d="M515.883 199.195h124.032v109.902H515.883z" transform="matrix(1.93498 0 0 1.09188 -998.224 -217.498)"/>
    <path style="fill:#662332" d="M515.883 199.195h124.032v109.902H515.883z" transform="matrix(1.93498 0 0 1.09188 201.776 -217.498)"/>
    <path style="fill:#663c25" d="M515.883 199.195h124.032v109.902H515.883z" transform="matrix(1.93498 0 0 1.09188 201.776 -97.498)"/>
    <path style="fill:#62511a" d="M515.883 199.195h124.032v109.902H515.883z" transform="matrix(1.93498 0 0 1.09188 201.776 22.502)"/>
    <path style="fill:#3c5b2e" d="M515.883 199.195h124.032v109.902H515.883z" transform="matrix(1.93498 0 0 1.09188 201.776 142.502)"/>
    <path style="fill:#256342" d="M515.883 199.195h124.032v109.902H515.883z" transform="matrix(1.93498 0 0 1.09188 201.776 262.502)"/>
    <path style="fill:#225c63" d="M515.883 199.195h124.032v109.902H515.883z" transform="matrix(1.93498 0 0 1.09188 201.776 382.502)"/>
    <path style="fill:#1b4162" d="M515.883 199.195h124.032v109.902H515.883z" transform="matrix(1.93498 0 0 1.09188 201.776 502.502)"/>
    <path style="fill:#3c2a63" d="M515.883 199.195h124.032v109.902H515.883z" transform="matrix(1.93498 0 0 1.09188 201.776 622.502)"/>
    <path style="fill:#632c60" d="M515.883 199.195h124.032v109.902H515.883z" transform="matrix(1.93498 0 0 1.09188 201.776 742.502)"/>
    <path style="fill:#cc4665" d="M515.883 199.195h124.032v109.902H515.883z" transform="matrix(1.93498 0 0 1.09188 441.776 -217.498)"/>
    <path style="fill:#cc784a" d="M515.883 199.195h124.032v109.902H515.883z" transform="matrix(1.93498 0 0 1.09188 441.776 -97.498)"/>
    <path style="fill:#c4a233" d="M515.883 199.195h124.032v109.902H515.883z" transform="matrix(1.93498 0 0 1.09188 441.776 22.502)"/>
    <path style="fill:#78b65d" d="M515.883 199.195h124.032v109.902H515.883z" transform="matrix(1.93498 0 0 1.09188 441.776 142.502)"/>
    <path style="fill:#4ac685" d="M515.883 199.195h124.032v109.902H515.883z" transform="matrix(1.93498 0 0 1.09188 441.776 262.502)"/>
    <path style="fill:#43b9c6" d="M515.883 199.195h124.032v109.902H515.883z" transform="matrix(1.93498 0 0 1.09188 441.776 382.502)"/>
    <path style="fill:#3682c4" d="M515.883 199.195h124.032v109.902H515.883z" transform="matrix(1.93498 0 0 1.09188 441.776 502.502)"/>
    <path style="fill:#7953c6" d="M515.883 199.195h124.032v109.902H515.883z" transform="matrix(1.93498 0 0 1.09188 441.776 622.502)"/>
    <path style="fill:#c658c1" d="M515.883 199.195h124.032v109.902H515.883z" transform="matrix(1.93498 0 0 1.09188 441.776 742.502)"/>
    <path style="fill:#ff577e" d="M515.883 199.195h124.032v109.902H515.883z" transform="matrix(1.93498 0 0 1.09188 681.776 -217.498)"/>
    <path style="fill:#ff965c" d="M515.883 199.195h124.032v109.902H515.883z" transform="matrix(1.93498 0 0 1.09188 681.776 -97.498)"/>
    <path style="fill:#f5cb40" d="M515.883 199.195h124.032v109.902H515.883z" transform="matrix(1.93498 0 0 1.09188 681.776 22.502)"/>
    <path style="fill:#96e474" d="M515.883 199.195h124.032v109.902H515.883z" transform="matrix(1.93498 0 0 1.09188 681.776 142.502)"/>
    <path style="fill:#5df8a6" d="M515.883 199.195h124.032v109.902H515.883z" transform="matrix(1.93498 0 0 1.09188 681.776 262.502)"/>
    <path style="fill:#54e7f8" d="M515.883 199.195h124.032v109.902H515.883z" transform="matrix(1.93498 0 0 1.09188 681.776 382.502)"/>
    <path style="fill:#44a3f5" d="M515.883 199.195h124.032v109.902H515.883z" transform="matrix(1.93498 0 0 1.09188 681.776 502.502)"/>
    <path style="fill:#9768f8" d="M515.883 199.195h124.032v109.902H515.883z" transform="matrix(1.93498 0 0 1.09188 681.776 622.502)"/>
    <path style="fill:#f76ef1" d="M515.883 199.195h124.032v109.902H515.883z" transform="matrix(1.93498 0 0 1.09188 681.776 742.502)"/>
    <path style="fill:#ff7998" d="M515.883 199.195h124.032v109.902H515.883z" transform="matrix(1.93498 0 0 1.09188 921.776 -217.498)"/>
    <path style="fill:#ffab7d" d="M515.883 199.195h124.032v109.902H515.883z" transform="matrix(1.93498 0 0 1.09188 921.776 -97.498)"/>
    <path style="fill:#f7d566" d="M515.883 199.195h124.032v109.902H515.883z" transform="matrix(1.93498 0 0 1.09188 921.776 22.502)"/>
    <path style="fill:#abe990" d="M515.883 199.195h124.032v109.902H515.883z" transform="matrix(1.93498 0 0 1.09188 921.776 142.502)"/>
    <path style="fill:#7df9b8" d="M515.883 199.195h124.032v109.902H515.883z" transform="matrix(1.93498 0 0 1.09188 921.776 262.502)"/>
    <path style="fill:#76ecf9" d="M515.883 199.195h124.032v109.902H515.883z" transform="matrix(1.93498 0 0 1.09188 921.776 382.502)"/>
    <path style="fill:#69b5f7" d="M515.883 199.195h124.032v109.902H515.883z" transform="matrix(1.93498 0 0 1.09188 921.776 502.502)"/>
    <path style="fill:#ac86f9" d="M515.883 199.195h124.032v109.902H515.883z" transform="matrix(1.93498 0 0 1.09188 921.776 622.502)"/>
    <path style="fill:#f98bf4" d="M515.883 199.195h124.032v109.902H515.883z" transform="matrix(1.93498 0 0 1.09188 921.776 742.502)"/>
    <path style="fill:#ffbccb" d="M515.883 199.195h124.032v109.902H515.883z" transform="matrix(1.93498 0 0 1.09188 1161.78 -217.498)"/>
    <path style="fill:#ffd5be" d="M515.883 199.195h124.032v109.902H515.883z" transform="matrix(1.93498 0 0 1.09188 1161.78 -97.498)"/>
    <path style="fill:#fbeab3" d="M515.883 199.195h124.032v109.902H515.883z" transform="matrix(1.93498 0 0 1.09188 1161.78 22.502)"/>
    <path style="fill:#d5f4c7" d="M515.883 199.195h124.032v109.902H515.883z" transform="matrix(1.93498 0 0 1.09188 1161.78 142.502)"/>
    <path style="fill:#befcdb" d="M515.883 199.195h124.032v109.902H515.883z" transform="matrix(1.93498 0 0 1.09188 1161.78 262.502)"/>
    <path style="fill:#bbf5fc" d="M515.883 199.195h124.032v109.902H515.883z" transform="matrix(1.93498 0 0 1.09188 1161.78 382.502)"/>
    <path style="fill:#b4dafb" d="M515.883 199.195h124.032v109.902H515.883z" transform="matrix(1.93498 0 0 1.09188 1161.78 502.502)"/>
    <path style="fill:#d5c3fc" d="M515.883 199.195h124.032v109.902H515.883z" transform="matrix(1.93498 0 0 1.09188 1161.78 622.502)"/>
    <path style="fill:#fcc5f9" d="M515.883 199.195h124.032v109.902H515.883z" transform="matrix(1.93498 0 0 1.09188 1161.78 742.502)"/>
    <path style="fill:#ff965c" d="M515.883 199.195h124.032v109.902H515.883z" transform="matrix(1.93498 0 0 1.09188 -998.224 -97.498)"/>
    <path style="fill:#f5cb40" d="M515.883 199.195h124.032v109.902H515.883z" transform="matrix(1.93498 0 0 1.09188 -998.224 22.502)"/>
    <path style="fill:#96e474" d="M515.883 199.195h124.032v109.902H515.883z" transform="matrix(1.93498 0 0 1.09188 -998.224 142.502)"/>
    <path style="fill:#5df8a6" d="M515.883 199.195h124.032v109.902H515.883z" transform="matrix(1.93498 0 0 1.09188 -998.224 262.502)"/>
    <path style="fill:#54e7f8" d="M515.883 199.195h124.032v109.902H515.883z" transform="matrix(1.93498 0 0 1.09188 -998.224 382.502)"/>
    <path style="fill:#44a3f5" d="M515.883 199.195h124.032v109.902H515.883z" transform="matrix(1.93498 0 0 1.09188 -998.224 502.502)"/>
    <path style="fill:#9768f8" d="M515.883 199.195h124.032v109.902H515.883z" transform="matrix(1.93498 0 0 1.09188 -998.224 622.502)"/>
    <path style="fill:#f76ef1" d="M515.883 199.195h124.032v109.902H515.883z" transform="matrix(1.93498 0 0 1.09188 -998.224 742.502)"/>
    <path style="fill:#191023" d="M515.883 199.195h124.032v109.902H515.883z" transform="matrix(1.93498 0 0 1.09188 1401.78 742.502)"/>
    <path style="fill:#17131e" d="M515.883 199.195h124.032v109.902H515.883z" transform="matrix(1.93498 0 0 1.09188 1641.78 742.502)"/>
    <path style="fill:#322145" d="M515.883 199.195h124.032v109.902H515.883z" transform="matrix(1.93498 0 0 1.09188 1401.78 622.502)"/>
    <path style="fill:#1a1528" d="M515.883 199.195h124.032v109.902H515.883z" transform="matrix(1.93498 0 0 1.09188 1641.78 622.502)"/>
    <path style="fill:#4a3168" d="M515.883 199.195h124.032v109.902H515.883z" transform="matrix(1.93498 0 0 1.09188 1401.78 502.502)"/>
    <path style="fill:#221c35" d="M515.883 199.195h124.032v109.902H515.883z" transform="matrix(1.93498 0 0 1.09188 1641.78 502.502)"/>
    <path style="fill:#63428a" d="M515.883 199.195h124.032v109.902H515.883z" transform="matrix(1.93498 0 0 1.09188 1401.78 382.502)"/>
    <path style="fill:#2b2343" d="M515.883 199.195h124.032v109.902H515.883z" transform="matrix(1.93498 0 0 1.09188 1641.78 382.502)"/>
    <path style="fill:#7c52ad" d="M515.883 199.195h124.032v109.902H515.883z" transform="matrix(1.93498 0 0 1.09188 1401.78 262.502)"/>
    <path style="fill:#342950" d="M515.883 199.195h124.032v109.902H515.883z" transform="matrix(1.93498 0 0 1.09188 1641.78 262.502)"/>
    <path style="fill:#9675bd" d="M515.883 199.195h124.032v109.902H515.883z" transform="matrix(1.93498 0 0 1.09188 1401.78 142.502)"/>
    <path style="fill:#3c305d" d="M515.883 199.195h124.032v109.902H515.883z" transform="matrix(1.93498 0 0 1.09188 1641.78 142.502)"/>
    <path style="fill:#b097ce" d="M515.883 199.195h124.032v109.902H515.883z" transform="matrix(1.93498 0 0 1.09188 1401.78 22.502)"/>
    <path style="fill:#45376a" d="M515.883 199.195h124.032v109.902H515.883z" transform="matrix(1.93498 0 0 1.09188 1641.78 22.502)"/>
    <path style="fill:#cbbade" d="M515.883 199.195h124.032v109.902H515.883z" transform="matrix(1.93498 0 0 1.09188 1401.78 -97.498)"/>
    <path style="fill:#4d3e78" d="M515.883 199.195h124.032v109.902H515.883z" transform="matrix(1.93498 0 0 1.09188 1641.78 -97.498)"/>
    <path style="fill:#e5dcef" d="M515.883 199.195h124.032v109.902H515.883z" transform="matrix(1.93498 0 0 1.09188 1401.78 -217.498)"/>
    <path style="fill:#564585" d="M515.883 199.195h124.032v109.902H515.883z" transform="matrix(1.93498 0 0 1.09188 1641.78 -217.498)"/>
    <path style="fill:#221c35" d="M515.883 199.195h124.032v109.902H515.883z" transform="matrix(1.93498 0 0 1.09188 -758.224 -217.498)"/>
    <path style="fill:#221c35" d="M515.883 199.195h124.032v109.902H515.883z" transform="matrix(1.93498 0 0 1.09188 -758.224 -97.498)"/>
    <path style="fill:#221c35" d="M515.883 199.195h124.032v109.902H515.883z" transform="matrix(1.93498 0 0 1.09188 -758.224 22.502)"/>
    <path style="fill:#221c35" d="M515.883 199.195h124.032v109.902H515.883z" transform="matrix(1.93498 0 0 1.09188 -758.224 142.502)"/>
    <path style="fill:#221c35" d="M515.883 199.195h124.032v109.902H515.883z" transform="matrix(1.93498 0 0 1.09188 -758.224 262.502)"/>
    <path style="fill:#221c35" d="M515.883 199.195h124.032v109.902H515.883z" transform="matrix(1.93498 0 0 1.09188 -758.224 382.502)"/>
    <path style="fill:#221c35" d="M515.883 199.195h124.032v109.902H515.883z" transform="matrix(1.93498 0 0 1.09188 -758.224 502.502)"/>
    <path style="fill:#221c35" d="M515.883 199.195h124.032v109.902H515.883z" transform="matrix(1.93498 0 0 1.09188 -758.224 622.502)"/>
    <path style="fill:#221c35" d="M515.883 199.195h124.032v109.902H515.883z" transform="matrix(1.93498 0 0 1.09188 -758.224 742.502)"/>
    <path style="fill:#2b2343" d="M515.883 199.195h124.032v109.902H515.883z" transform="matrix(1.93498 0 0 1.09188 -518.224 -217.498)"/>
    <path style="fill:#2b2343" d="M515.883 199.195h124.032v109.902H515.883z" transform="matrix(1.93498 0 0 1.09188 -518.224 -97.498)"/>
    <path style="fill:#2b2343" d="M515.883 199.195h124.032v109.902H515.883z" transform="matrix(1.93498 0 0 1.09188 -518.224 22.502)"/>
    <path style="fill:#2b2343" d="M515.883 199.195h124.032v109.902H515.883z" transform="matrix(1.93498 0 0 1.09188 -518.224 142.502)"/>
    <path style="fill:#2b2343" d="M515.883 199.195h124.032v109.902H515.883z" transform="matrix(1.93498 0 0 1.09188 -518.224 262.502)"/>
    <path style="fill:#2b2343" d="M515.883 199.195h124.032v109.902H515.883z" transform="matrix(1.93498 0 0 1.09188 -518.224 382.502)"/>
    <path style="fill:#2b2343" d="M515.883 199.195h124.032v109.902H515.883z" transform="matrix(1.93498 0 0 1.09188 -518.224 502.502)"/>
    <path style="fill:#2b2343" d="M515.883 199.195h124.032v109.902H515.883z" transform="matrix(1.93498 0 0 1.09188 -518.224 622.502)"/>
    <path style="fill:#2b2343" d="M515.883 199.195h124.032v109.902H515.883z" transform="matrix(1.93498 0 0 1.09188 -518.224 742.502)"/>
    <path style="fill:#322145" d="M515.883 199.195h124.032v109.902H515.883z" transform="matrix(1.93498 0 0 1.09188 -278.224 -217.498)"/>
    <path style="fill:#322145" d="M515.883 199.195h124.032v109.902H515.883z" transform="matrix(1.93498 0 0 1.09188 -278.224 -97.498)"/>
    <path style="fill:#322145" d="M515.883 199.195h124.032v109.902H515.883z" transform="matrix(1.93498 0 0 1.09188 -278.224 22.502)"/>
    <path style="fill:#322145" d="M515.883 199.195h124.032v109.902H515.883z" transform="matrix(1.93498 0 0 1.09188 -278.224 142.502)"/>
    <path style="fill:#322145" d="M515.883 199.195h124.032v109.902H515.883z" transform="matrix(1.93498 0 0 1.09188 -278.224 262.502)"/>
    <path style="fill:#322145" d="M515.883 199.195h124.032v109.902H515.883z" transform="matrix(1.93498 0 0 1.09188 -278.224 382.502)"/>
    <path style="fill:#322145" d="M515.883 199.195h124.032v109.902H515.883z" transform="matrix(1.93498 0 0 1.09188 -278.224 502.502)"/>
    <path style="fill:#322145" d="M515.883 199.195h124.032v109.902H515.883z" transform="matrix(1.93498 0 0 1.09188 -278.224 622.502)"/>
    <path style="fill:#322145" d="M515.883 199.195h124.032v109.902H515.883z" transform="matrix(1.93498 0 0 1.09188 -278.224 742.502)"/>
    <path style="fill:#17131e" d="M515.883 199.195h124.032v109.902H515.883z" transform="matrix(1.93498 0 0 1.09188 -38.224 -217.498)"/>
    <path style="fill:#17131e" d="M515.883 199.195h124.032v109.902H515.883z" transform="matrix(1.93498 0 0 1.09188 -38.224 -97.498)"/>
    <path style="fill:#17131e" d="M515.883 199.195h124.032v109.902H515.883z" transform="matrix(1.93498 0 0 1.09188 -38.224 22.502)"/>
    <path style="fill:#17131e" d="M515.883 199.195h124.032v109.902H515.883z" transform="matrix(1.93498 0 0 1.09188 -38.224 142.502)"/>
    <path style="fill:#17131e" d="M515.883 199.195h124.032v109.902H515.883z" transform="matrix(1.93498 0 0 1.09188 -38.224 262.502)"/>
    <path style="fill:#17131e" d="M515.883 199.195h124.032v109.902H515.883z" transform="matrix(1.93498 0 0 1.09188 -38.224 382.502)"/>
    <path style="fill:#17131e" d="M515.883 199.195h124.032v109.902H515.883z" transform="matrix(1.93498 0 0 1.09188 -38.224 502.502)"/>
    <path style="fill:#17131e" d="M515.883 199.195h124.032v109.902H515.883z" transform="matrix(1.93498 0 0 1.09188 -38.224 622.502)"/>
    <path style="fill:#17131e" d="M515.883 199.195h124.032v109.902H515.883z" transform="matrix(1.93498 0 0 1.09188 -38.224 742.502)"/>
    <text x="554.716" y="107.808" style="font-family:'VictorMono-Medium','Victor Mono';font-weight:500;font-size:36px;fill:#17131e" transform="translate(-464.76 -34.946)">red</text>
    <text x="515.443" y="107.808" style="font-family:'VictorMono-Medium','Victor Mono';font-weight:500;font-size:36px;fill:#ff7998" transform="translate(736.467 -48.823)">#662332</text>
    <text x="544.898" y="136.172" style="font-family:'VictorMono-Medium','Victor Mono';font-weight:500;font-size:24px;fill:#ff7998" transform="translate(736.467 -48.823)">red900</text>
    <text x="525.262" y="107.808" style="font-family:'VictorMono-Medium','Victor Mono';font-weight:500;font-size:36px;fill:#17131e" transform="translate(-464.4 79.326)">orange</text>
    <text x="515.443" y="107.808" style="font-family:'VictorMono-Medium','Victor Mono';font-weight:500;font-size:36px;fill:#ffab7d" transform="translate(736.337 69.192)">#663c25</text>
    <text x="525.262" y="136.172" style="font-family:'VictorMono-Medium','Victor Mono';font-weight:500;font-size:24px;fill:#ffab7d" transform="translate(736.337 69.192)">orange900</text>
    <text x="525.262" y="107.808" style="font-family:'VictorMono-Medium','Victor Mono';font-weight:500;font-size:36px;fill:#17131e" transform="translate(-464.236 202.075)">yellow</text>
    <text x="515.443" y="107.808" style="font-family:'VictorMono-Medium','Victor Mono';font-weight:500;font-size:36px;fill:#f7d566" transform="translate(735.813 189.192)">#62511a</text>
    <text x="525.262" y="136.172" style="font-family:'VictorMono-Medium','Victor Mono';font-weight:500;font-size:24px;fill:#f7d566" transform="translate(735.813 189.192)">yellow900</text>
    <text x="535.08" y="107.808" style="font-family:'VictorMono-Medium','Victor Mono';font-weight:500;font-size:36px;fill:#17131e" transform="translate(-463.991 319.326)">green</text>
    <text x="515.443" y="107.808" style="font-family:'VictorMono-Medium','Victor Mono';font-weight:500;font-size:36px;fill:#abe990" transform="translate(736.484 309.192)">#3c5b2e</text>
    <text x="531.807" y="136.172" style="font-family:'VictorMono-Medium','Victor Mono';font-weight:500;font-size:24px;fill:#abe990" transform="translate(736.484 309.192)">green900</text>
    <text x="544.898" y="107.808" style="font-family:'VictorMono-Medium','Victor Mono';font-weight:500;font-size:36px;fill:#17131e" transform="translate(-464.105 445.054)">teal</text>
    <text x="515.443" y="107.808" style="font-family:'VictorMono-Medium','Victor Mono';font-weight:500;font-size:36px;fill:#7df9b8" transform="translate(736.467 431.177)">#256342</text>
    <text x="538.353" y="136.172" style="font-family:'VictorMono-Medium','Victor Mono';font-weight:500;font-size:24px;fill:#7df9b8" transform="translate(736.467 431.177)">teal900</text>
    <text x="544.898" y="107.808" style="font-family:'VictorMono-Medium','Victor Mono';font-weight:500;font-size:36px;fill:#17131e" transform="translate(-464.105 559.326)">cyan</text>
    <text x="515.443" y="107.808" style="font-family:'VictorMono-Medium','Victor Mono';font-weight:500;font-size:36px;fill:#76ecf9" transform="translate(736.647 549.192)">#225c63</text>
    <text x="538.353" y="136.172" style="font-family:'VictorMono-Medium','Victor Mono';font-weight:500;font-size:24px;fill:#76ecf9" transform="translate(736.647 549.192)">cyan900</text>
    <text x="544.898" y="107.808" style="font-family:'VictorMono-Medium','Victor Mono';font-weight:500;font-size:36px;fill:#17131e" transform="translate(-464.694 685.054)">blue</text>
    <text x="515.443" y="107.808" style="font-family:'VictorMono-Medium','Victor Mono';font-weight:500;font-size:36px;fill:#69b5f7" transform="translate(736.467 671.177)">#1b4162</text>
    <text x="538.353" y="136.172" style="font-family:'VictorMono-Medium','Victor Mono';font-weight:500;font-size:24px;fill:#69b5f7" transform="translate(736.467 671.177)">blue900</text>
    <text x="525.262" y="107.808" style="font-family:'VictorMono-Medium','Victor Mono';font-weight:500;font-size:36px;fill:#17131e" transform="translate(-464.498 802.305)">purple</text>
    <text x="515.443" y="107.808" style="font-family:'VictorMono-Medium','Victor Mono';font-weight:500;font-size:36px;fill:#ac86f9" transform="translate(736.647 789.345)">#3c2a63</text>
    <text x="525.262" y="136.172" style="font-family:'VictorMono-Medium','Victor Mono';font-weight:500;font-size:24px;fill:#ac86f9" transform="translate(736.647 789.345)">purple900</text>
    <text x="515.443" y="107.808" style="font-family:'VictorMono-Medium','Victor Mono';font-weight:500;font-size:36px;fill:#17131e" transform="translate(-464.613 922.075)">magenta</text>
    <text x="515.443" y="107.808" style="font-family:'VictorMono-Medium','Victor Mono';font-weight:500;font-size:36px;fill:#cbbade" transform="translate(1936.78 429.192)">#7c52ad</text>
    <text x="551.443" y="136.172" style="font-family:'VictorMono-Medium','Victor Mono';font-weight:500;font-size:24px;fill:#cbbade" transform="translate(1936.78 429.192)">fg500</text>
    <text x="515.443" y="107.808" style="font-family:'VictorMono-Medium','Victor Mono';font-weight:500;font-size:36px;fill:#cbbade" transform="translate(2176.42 429.192)">#342950</text>
    <text x="551.443" y="136.172" style="font-family:'VictorMono-Medium','Victor Mono';font-weight:500;font-size:24px;fill:#cbbade" transform="translate(2176.42 429.192)">bg500</text>
    <text x="515.443" y="107.808" style="font-family:'VictorMono-Medium','Victor Mono';font-weight:500;font-size:36px;fill:#cbbade" transform="translate(1935.81 549.192)">#63428a</text>
    <text x="551.443" y="136.172" style="font-family:'VictorMono-Medium','Victor Mono';font-weight:500;font-size:24px;fill:#cbbade" transform="translate(1935.81 549.192)">fg600</text>
    <text x="515.443" y="107.808" style="font-family:'VictorMono-Medium','Victor Mono';font-weight:500;font-size:36px;fill:#cbbade" transform="translate(2176.65 549.192)">#2b2343</text>
    <text x="551.443" y="136.172" style="font-family:'VictorMono-Medium','Victor Mono';font-weight:500;font-size:24px;fill:#cbbade" transform="translate(2176.65 549.192)">bg600</text>
    <text x="515.443" y="107.808" style="font-family:'VictorMono-Medium','Victor Mono';font-weight:500;font-size:36px;fill:#cbbade" transform="translate(1936.4 669.192)">#4a3168</text>
    <text x="551.443" y="136.172" style="font-family:'VictorMono-Medium','Victor Mono';font-weight:500;font-size:24px;fill:#cbbade" transform="translate(1936.4 669.192)">fg700</text>
    <text x="515.443" y="107.808" style="font-family:'VictorMono-Medium','Victor Mono';font-weight:500;font-size:36px;fill:#cbbade" transform="translate(2176.34 669.192)">#221c35</text>
    <text x="551.443" y="136.172" style="font-family:'VictorMono-Medium','Victor Mono';font-weight:500;font-size:24px;fill:#cbbade" transform="translate(2176.34 669.192)">bg700</text>
    <text x="515.443" y="107.808" style="font-family:'VictorMono-Medium','Victor Mono';font-weight:500;font-size:36px;fill:#cbbade" transform="translate(1936.34 789.192)">#322145</text>
    <text x="551.443" y="136.172" style="font-family:'VictorMono-Medium','Victor Mono';font-weight:500;font-size:24px;fill:#cbbade" transform="translate(1936.34 789.192)">fg800</text>
    <text x="515.443" y="107.808" style="font-family:'VictorMono-Medium','Victor Mono';font-weight:500;font-size:36px;fill:#cbbade" transform="translate(2176.4 789.192)">#1a1528</text>
    <text x="551.443" y="136.172" style="font-family:'VictorMono-Medium','Victor Mono';font-weight:500;font-size:24px;fill:#cbbade" transform="translate(2176.4 789.192)">bg800</text>
    <text x="515.443" y="107.808" style="font-family:'VictorMono-Medium','Victor Mono';font-weight:500;font-size:36px;fill:#cbbade" transform="translate(1936.65 909.192)">#191023</text>
    <text x="551.443" y="136.172" style="font-family:'VictorMono-Medium','Victor Mono';font-weight:500;font-size:24px;fill:#cbbade" transform="translate(1936.65 909.192)">fg900</text>
    <text x="515.443" y="107.808" style="font-family:'VictorMono-Medium','Victor Mono';font-weight:500;font-size:36px;fill:#cbbade" transform="translate(2176.48 909.192)">#17131e</text>
    <text x="551.443" y="136.172" style="font-family:'VictorMono-Medium','Victor Mono';font-weight:500;font-size:24px;fill:#cbbade" transform="translate(2176.48 909.192)">bg900</text>
    <text x="515.443" y="107.808" style="font-family:'VictorMono-Medium','Victor Mono';font-weight:500;font-size:36px;fill:#17131e" transform="translate(1936.78 309.192)">#9675bd</text>
    <text x="551.443" y="136.172" style="font-family:'VictorMono-Medium','Victor Mono';font-weight:500;font-size:24px;fill:#17131e" transform="translate(1936.78 309.192)">fg400</text>
    <text x="515.443" y="107.808" style="font-family:'VictorMono-Medium','Victor Mono';font-weight:500;font-size:36px;fill:#cbbade" transform="translate(2176.78 309.192)">#3c305d</text>
    <text x="551.443" y="136.172" style="font-family:'VictorMono-Medium','Victor Mono';font-weight:500;font-size:24px;fill:#cbbade" transform="translate(2176.78 309.192)">bg400</text>
    <text x="515.443" y="107.808" style="font-family:'VictorMono-Medium','Victor Mono';font-weight:500;font-size:36px;fill:#17131e" transform="translate(1936.48 189.192)">#b097ce</text>
    <text x="551.443" y="136.172" style="font-family:'VictorMono-Medium','Victor Mono';font-weight:500;font-size:24px;fill:#17131e" transform="translate(1936.48 189.192)">fg300</text>
    <text x="515.443" y="107.808" style="font-family:'VictorMono-Medium','Victor Mono';font-weight:500;font-size:36px;fill:#cbbade" transform="translate(2175.81 189.192)">#45376a</text>
    <text x="551.443" y="136.172" style="font-family:'VictorMono-Medium','Victor Mono';font-weight:500;font-size:24px;fill:#cbbade" transform="translate(2175.81 189.192)">bg300</text>
    <text x="515.443" y="107.808" style="font-family:'VictorMono-Medium','Victor Mono';font-weight:500;font-size:36px;fill:#17131e" transform="translate(1936.48 68.963)">#cbbade</text>
    <text x="551.443" y="136.172" style="font-family:'VictorMono-Medium','Victor Mono';font-weight:500;font-size:24px;fill:#17131e" transform="translate(1936.48 68.963)">fg200</text>
    <text x="515.443" y="107.808" style="font-family:'VictorMono-Medium','Victor Mono';font-weight:500;font-size:36px;fill:#cbbade" transform="translate(2176.4 69.192)">#4d3e78</text>
    <text x="551.443" y="136.172" style="font-family:'VictorMono-Medium','Victor Mono';font-weight:500;font-size:24px;fill:#cbbade" transform="translate(2176.4 69.192)">bg200</text>
    <text x="515.443" y="107.808" style="font-family:'VictorMono-Medium','Victor Mono';font-weight:500;font-size:36px;fill:#17131e" transform="translate(1935.99 -50.808)">#e5dcef</text>
    <text x="551.443" y="136.172" style="font-family:'VictorMono-Medium','Victor Mono';font-weight:500;font-size:24px;fill:#17131e" transform="translate(1935.99 -50.808)">fg100</text>
    <text x="515.443" y="107.808" style="font-family:'VictorMono-Medium','Victor Mono';font-weight:500;font-size:36px;fill:#cbbade" transform="translate(2176.34 -50.808)">#564585</text>
    <text x="551.443" y="136.172" style="font-family:'VictorMono-Medium','Victor Mono';font-weight:500;font-size:24px;fill:#cbbade" transform="translate(2176.34 -50.808)">bg100</text>
    <text x="515.443" y="107.808" style="font-family:'VictorMono-Medium','Victor Mono';font-weight:500;font-size:36px;fill:#f98bf4" transform="translate(736.418 909.192)">#632c60</text>
    <text x="518.716" y="136.172" style="font-family:'VictorMono-Medium','Victor Mono';font-weight:500;font-size:24px;fill:#f98bf4" transform="translate(736.418 909.192)">magenta900</text>
    <text x="554.716" y="107.808" style="font-family:'VictorMono-Medium','Victor Mono';font-weight:500;font-size:36px;fill:#ff577e" transform="translate(-224.76 -34.946)">red</text>
    <text x="515.443" y="107.808" style="font-family:'VictorMono-Medium','Victor Mono';font-weight:500;font-size:36px;fill:#ff7998" transform="translate(976.337 -48.823)">#cc4665</text>
    <text x="544.898" y="136.172" style="font-family:'VictorMono-Medium','Victor Mono';font-weight:500;font-size:24px;fill:#ff7998" transform="translate(976.337 -48.823)">red700</text>
    <text x="525.262" y="107.808" style="font-family:'VictorMono-Medium','Victor Mono';font-weight:500;font-size:36px;fill:#ff965c" transform="translate(-224.4 79.326)">orange</text>
    <text x="515.443" y="107.808" style="font-family:'VictorMono-Medium','Victor Mono';font-weight:500;font-size:36px;fill:#ffab7d" transform="translate(975.813 69.192)">#cc784a</text>
    <text x="525.262" y="136.172" style="font-family:'VictorMono-Medium','Victor Mono';font-weight:500;font-size:24px;fill:#ffab7d" transform="translate(975.813 69.192)">orange700</text>
    <text x="525.262" y="107.808" style="font-family:'VictorMono-Medium','Victor Mono';font-weight:500;font-size:36px;fill:#f5cb40" transform="translate(-224.236 202.075)">yellow</text>
    <text x="515.443" y="107.808" style="font-family:'VictorMono-Medium','Victor Mono';font-weight:500;font-size:36px;fill:#f7d566" transform="translate(976.647 189.192)">#c4a233</text>
    <text x="525.262" y="136.172" style="font-family:'VictorMono-Medium','Victor Mono';font-weight:500;font-size:24px;fill:#f7d566" transform="translate(976.647 189.192)">yellow700</text>
    <text x="535.08" y="107.808" style="font-family:'VictorMono-Medium','Victor Mono';font-weight:500;font-size:36px;fill:#96e474" transform="translate(-223.991 319.326)">green</text>
    <text x="515.443" y="107.808" style="font-family:'VictorMono-Medium','Victor Mono';font-weight:500;font-size:36px;fill:#abe990" transform="translate(976.778 309.192)">#78b65d</text>
    <text x="531.807" y="136.172" style="font-family:'VictorMono-Medium','Victor Mono';font-weight:500;font-size:24px;fill:#abe990" transform="translate(976.778 309.192)">green700</text>
    <text x="544.898" y="107.808" style="font-family:'VictorMono-Medium','Victor Mono';font-weight:500;font-size:36px;fill:#5df8a6" transform="translate(-224.105 445.054)">teal</text>
    <text x="515.443" y="107.808" style="font-family:'VictorMono-Medium','Victor Mono';font-weight:500;font-size:36px;fill:#7df9b8" transform="translate(976.337 431.177)">#4ac685</text>
    <text x="538.353" y="136.172" style="font-family:'VictorMono-Medium','Victor Mono';font-weight:500;font-size:24px;fill:#7df9b8" transform="translate(976.337 431.177)">teal700</text>
    <text x="544.898" y="107.808" style="font-family:'VictorMono-Medium','Victor Mono';font-weight:500;font-size:36px;fill:#54e7f8" transform="translate(-224.105 559.326)">cyan</text>
    <text x="515.443" y="107.808" style="font-family:'VictorMono-Medium','Victor Mono';font-weight:500;font-size:36px;fill:#76ecf9" transform="translate(976.533 549.192)">#43b9c6</text>
    <text x="538.353" y="136.172" style="font-family:'VictorMono-Medium','Victor Mono';font-weight:500;font-size:24px;fill:#76ecf9" transform="translate(976.533 549.192)">cyan700</text>
    <text x="544.898" y="107.808" style="font-family:'VictorMono-Medium','Victor Mono';font-weight:500;font-size:36px;fill:#44a3f5" transform="translate(-224.694 685.054)">blue</text>
    <text x="515.443" y="107.808" style="font-family:'VictorMono-Medium','Victor Mono';font-weight:500;font-size:36px;fill:#69b5f7" transform="translate(976.418 671.177)">#3682c4</text>
    <text x="538.353" y="136.172" style="font-family:'VictorMono-Medium','Victor Mono';font-weight:500;font-size:24px;fill:#69b5f7" transform="translate(976.418 671.177)">blue700</text>
    <text x="525.262" y="107.808" style="font-family:'VictorMono-Medium','Victor Mono';font-weight:500;font-size:36px;fill:#9768f8" transform="translate(-224.498 802.305)">purple</text>
    <text x="515.443" y="107.808" style="font-family:'VictorMono-Medium','Victor Mono';font-weight:500;font-size:36px;fill:#ac86f9" transform="translate(976.533 789.345)">#7953c6</text>
    <text x="525.262" y="136.172" style="font-family:'VictorMono-Medium','Victor Mono';font-weight:500;font-size:24px;fill:#ac86f9" transform="translate(976.533 789.345)">purple700</text>
    <text x="515.443" y="107.808" style="font-family:'VictorMono-Medium','Victor Mono';font-weight:500;font-size:36px;fill:#f76ef1" transform="translate(-224.613 922.075)">magenta</text>
    <text x="515.443" y="107.808" style="font-family:'VictorMono-Medium','Victor Mono';font-weight:500;font-size:36px;fill:#f98bf4" transform="translate(977.498 909.192)">#c658c1</text>
    <text x="518.716" y="136.172" style="font-family:'VictorMono-Medium','Victor Mono';font-weight:500;font-size:24px;fill:#f98bf4" transform="translate(977.498 909.192)">magenta700</text>
    <text x="554.716" y="107.808" style="font-family:'VictorMono-Medium','Victor Mono';font-weight:500;font-size:36px;fill:#ff577e" transform="translate(15.24 -34.946)">red</text>
    <text x="515.443" y="107.808" style="font-family:'VictorMono-Medium','Victor Mono';font-weight:500;font-size:36px;fill:#662332" transform="translate(1216.48 -48.823)">#ff577e</text>
    <text x="544.898" y="136.172" style="font-family:'VictorMono-Medium','Victor Mono';font-weight:500;font-size:24px;fill:#662332" transform="translate(1216.48 -48.823)">red500</text>
    <text x="525.262" y="107.808" style="font-family:'VictorMono-Medium','Victor Mono';font-weight:500;font-size:36px;fill:#ff965c" transform="translate(15.6 79.326)">orange</text>
    <text x="515.443" y="107.808" style="font-family:'VictorMono-Medium','Victor Mono';font-weight:500;font-size:36px;fill:#663c25" transform="translate(1216.58 69.192)">#ff965c</text>
    <text x="525.262" y="136.172" style="font-family:'VictorMono-Medium','Victor Mono';font-weight:500;font-size:24px;fill:#663c25" transform="translate(1216.58 69.192)">orange500</text>
    <text x="525.262" y="107.808" style="font-family:'VictorMono-Medium','Victor Mono';font-weight:500;font-size:36px;fill:#f5cb40" transform="translate(15.764 202.075)">yellow</text>
    <text x="515.443" y="107.808" style="font-family:'VictorMono-Medium','Victor Mono';font-weight:500;font-size:36px;fill:#62511a" transform="translate(1216.42 189.192)">#f5cb40</text>
    <text x="525.262" y="136.172" style="font-family:'VictorMono-Medium','Victor Mono';font-weight:500;font-size:24px;fill:#62511a" transform="translate(1216.42 189.192)">yellow500</text>
    <text x="535.08" y="107.808" style="font-family:'VictorMono-Medium','Victor Mono';font-weight:500;font-size:36px;fill:#96e474" transform="translate(16.01 319.326)">green</text>
    <text x="515.443" y="107.808" style="font-family:'VictorMono-Medium','Victor Mono';font-weight:500;font-size:36px;fill:#3c5b2e" transform="translate(1216.42 309.192)">#96e474</text>
    <text x="531.807" y="136.172" style="font-family:'VictorMono-Medium','Victor Mono';font-weight:500;font-size:24px;fill:#3c5b2e" transform="translate(1216.42 309.192)">green500</text>
    <text x="544.898" y="107.808" style="font-family:'VictorMono-Medium','Victor Mono';font-weight:500;font-size:36px;fill:#5df8a6" transform="translate(15.895 445.054)">teal</text>
    <text x="515.443" y="107.808" style="font-family:'VictorMono-Medium','Victor Mono';font-weight:500;font-size:36px;fill:#256342" transform="translate(1216.53 431.177)">#5df8a6</text>
    <text x="538.353" y="136.172" style="font-family:'VictorMono-Medium','Victor Mono';font-weight:500;font-size:24px;fill:#256342" transform="translate(1216.53 431.177)">teal500</text>
    <text x="544.898" y="107.808" style="font-family:'VictorMono-Medium','Victor Mono';font-weight:500;font-size:36px;fill:#54e7f8" transform="translate(15.895 559.326)">cyan</text>
    <text x="515.443" y="107.808" style="font-family:'VictorMono-Medium','Victor Mono';font-weight:500;font-size:36px;fill:#225c63" transform="translate(1216.4 549.192)">#54e7f8</text>
    <text x="538.353" y="136.172" style="font-family:'VictorMono-Medium','Victor Mono';font-weight:500;font-size:24px;fill:#225c63" transform="translate(1216.4 549.192)">cyan500</text>
    <text x="544.898" y="107.808" style="font-family:'VictorMono-Medium','Victor Mono';font-weight:500;font-size:36px;fill:#44a3f5" transform="translate(15.306 685.054)">blue</text>
    <text x="515.443" y="107.808" style="font-family:'VictorMono-Medium','Victor Mono';font-weight:500;font-size:36px;fill:#1b4162" transform="translate(1216.34 671.177)">#44a3f5</text>
    <text x="538.353" y="136.172" style="font-family:'VictorMono-Medium','Victor Mono';font-weight:500;font-size:24px;fill:#1b4162" transform="translate(1216.34 671.177)">blue500</text>
    <text x="525.262" y="107.808" style="font-family:'VictorMono-Medium','Victor Mono';font-weight:500;font-size:36px;fill:#9768f8" transform="translate(15.502 802.305)">purple</text>
    <text x="515.443" y="107.808" style="font-family:'VictorMono-Medium','Victor Mono';font-weight:500;font-size:36px;fill:#3c2a63" transform="translate(1216.4 789.345)">#9768f8</text>
    <text x="525.262" y="136.172" style="font-family:'VictorMono-Medium','Victor Mono';font-weight:500;font-size:24px;fill:#3c2a63" transform="translate(1216.4 789.345)">purple500</text>
    <text x="515.443" y="107.808" style="font-family:'VictorMono-Medium','Victor Mono';font-weight:500;font-size:36px;fill:#f76ef1" transform="translate(15.387 922.075)">magenta</text>
    <text x="515.443" y="107.808" style="font-family:'VictorMono-Medium','Victor Mono';font-weight:500;font-size:36px;fill:#632c60" transform="translate(1217.5 909.192)">#f76ef1</text>
    <text x="518.716" y="136.172" style="font-family:'VictorMono-Medium','Victor Mono';font-weight:500;font-size:24px;fill:#632c60" transform="translate(1217.5 909.192)">magenta500</text>
    <text x="554.716" y="107.808" style="font-family:'VictorMono-Medium','Victor Mono';font-weight:500;font-size:36px;fill:#ff577e" transform="translate(255.24 -34.946)">red</text>
    <text x="515.443" y="107.808" style="font-family:'VictorMono-Medium','Victor Mono';font-weight:500;font-size:36px;fill:#cc4665" transform="translate(1456.4 -48.823)">#ff7998</text>
    <text x="544.898" y="136.172" style="font-family:'VictorMono-Medium','Victor Mono';font-weight:500;font-size:24px;fill:#cc4665" transform="translate(1456.4 -48.823)">red300</text>
    <text x="525.262" y="107.808" style="font-family:'VictorMono-Medium','Victor Mono';font-weight:500;font-size:36px;fill:#ff965c" transform="translate(255.6 79.326)">orange</text>
    <text x="515.443" y="107.808" style="font-family:'VictorMono-Medium','Victor Mono';font-weight:500;font-size:36px;fill:#cc784a" transform="translate(1456.78 69.192)">#ffab7d</text>
    <text x="525.262" y="136.172" style="font-family:'VictorMono-Medium','Victor Mono';font-weight:500;font-size:24px;fill:#cc784a" transform="translate(1456.78 69.192)">orange300</text>
    <text x="525.262" y="107.808" style="font-family:'VictorMono-Medium','Victor Mono';font-weight:500;font-size:36px;fill:#f5cb40" transform="translate(255.764 202.075)">yellow</text>
    <text x="515.443" y="107.808" style="font-family:'VictorMono-Medium','Victor Mono';font-weight:500;font-size:36px;fill:#c4a233" transform="translate(1456.53 189.192)">#f7d566</text>
    <text x="525.262" y="136.172" style="font-family:'VictorMono-Medium','Victor Mono';font-weight:500;font-size:24px;fill:#c4a233" transform="translate(1456.53 189.192)">yellow300</text>
    <text x="535.08" y="107.808" style="font-family:'VictorMono-Medium','Victor Mono';font-weight:500;font-size:36px;fill:#96e474" transform="translate(256.009 319.326)">green</text>
    <text x="515.443" y="107.808" style="font-family:'VictorMono-Medium','Victor Mono';font-weight:500;font-size:36px;fill:#78b65d" transform="translate(1456.42 309.192)">#abe990</text>
    <text x="531.807" y="136.172" style="font-family:'VictorMono-Medium','Victor Mono';font-weight:500;font-size:24px;fill:#78b65d" transform="translate(1456.42 309.192)">green300</text>
    <text x="544.898" y="107.808" style="font-family:'VictorMono-Medium','Victor Mono';font-weight:500;font-size:36px;fill:#5df8a6" transform="translate(255.895 445.054)">teal</text>
    <text x="515.443" y="107.808" style="font-family:'VictorMono-Medium','Victor Mono';font-weight:500;font-size:36px;fill:#4ac685" transform="translate(1456.4 431.177)">#7df9b8</text>
    <text x="538.353" y="136.172" style="font-family:'VictorMono-Medium','Victor Mono';font-weight:500;font-size:24px;fill:#4ac685" transform="translate(1456.4 431.177)">teal300</text>
    <text x="544.898" y="107.808" style="font-family:'VictorMono-Medium','Victor Mono';font-weight:500;font-size:36px;fill:#54e7f8" transform="translate(255.895 559.326)">cyan</text>
    <text x="515.443" y="107.808" style="font-family:'VictorMono-Medium','Victor Mono';font-weight:500;font-size:36px;fill:#43b9c6" transform="translate(1456.53 549.192)">#76ecf9</text>
    <text x="538.353" y="136.172" style="font-family:'VictorMono-Medium','Victor Mono';font-weight:500;font-size:24px;fill:#43b9c6" transform="translate(1456.53 549.192)">cyan300</text>
    <text x="544.898" y="107.808" style="font-family:'VictorMono-Medium','Victor Mono';font-weight:500;font-size:36px;fill:#44a3f5" transform="translate(255.306 685.054)">blue</text>
    <text x="515.443" y="107.808" style="font-family:'VictorMono-Medium','Victor Mono';font-weight:500;font-size:36px;fill:#3682c4" transform="translate(1456.57 671.177)">#69b5f7</text>
    <text x="538.353" y="136.172" style="font-family:'VictorMono-Medium','Victor Mono';font-weight:500;font-size:24px;fill:#3682c4" transform="translate(1456.57 671.177)">blue300</text>
    <text x="525.262" y="107.808" style="font-family:'VictorMono-Medium','Victor Mono';font-weight:500;font-size:36px;fill:#9768f8" transform="translate(255.502 802.305)">purple</text>
    <text x="515.443" y="107.808" style="font-family:'VictorMono-Medium','Victor Mono';font-weight:500;font-size:36px;fill:#7953c6" transform="translate(1456.53 789.345)">#ac86f9</text>
    <text x="525.262" y="136.172" style="font-family:'VictorMono-Medium','Victor Mono';font-weight:500;font-size:24px;fill:#7953c6" transform="translate(1456.53 789.345)">purple300</text>
    <text x="515.443" y="107.808" style="font-family:'VictorMono-Medium','Victor Mono';font-weight:500;font-size:36px;fill:#f76ef1" transform="translate(255.387 922.075)">magenta</text>
    <text x="515.443" y="107.808" style="font-family:'VictorMono-Medium','Victor Mono';font-weight:500;font-size:36px;fill:#c658c1" transform="translate(1456.42 909.192)">#f98bf4</text>
    <text x="518.716" y="136.172" style="font-family:'VictorMono-Medium','Victor Mono';font-weight:500;font-size:24px;fill:#c658c1" transform="translate(1456.42 909.192)">magenta300</text>
    <text x="554.716" y="107.808" style="font-family:'VictorMono-Medium','Victor Mono';font-weight:500;font-size:36px;fill:#ff577e" transform="translate(495.24 -34.946)">red</text>
    <text x="515.443" y="107.808" style="font-family:'VictorMono-Medium','Victor Mono';font-weight:500;font-size:36px;fill:#cc4665" transform="translate(1696.63 -48.823)">#ffbccb</text>
    <text x="544.898" y="136.172" style="font-family:'VictorMono-Medium','Victor Mono';font-weight:500;font-size:24px;fill:#cc4665" transform="translate(1696.63 -48.823)">red100</text>
    <text x="525.262" y="107.808" style="font-family:'VictorMono-Medium','Victor Mono';font-weight:500;font-size:36px;fill:#ff965c" transform="translate(495.6 79.326)">orange</text>
    <text x="515.443" y="107.808" style="font-family:'VictorMono-Medium','Victor Mono';font-weight:500;font-size:36px;fill:#cc784a" transform="translate(1696.48 69.192)">#ffd5be</text>
    <text x="525.262" y="136.172" style="font-family:'VictorMono-Medium','Victor Mono';font-weight:500;font-size:24px;fill:#cc784a" transform="translate(1696.48 69.192)">orange100</text>
    <text x="525.262" y="107.808" style="font-family:'VictorMono-Medium','Victor Mono';font-weight:500;font-size:36px;fill:#f5cb40" transform="translate(495.764 202.075)">yellow</text>
    <text x="515.443" y="107.808" style="font-family:'VictorMono-Medium','Victor Mono';font-weight:500;font-size:36px;fill:#c4a233" transform="translate(1696.65 189.192)">#fbeab3</text>
    <text x="525.262" y="136.172" style="font-family:'VictorMono-Medium','Victor Mono';font-weight:500;font-size:24px;fill:#c4a233" transform="translate(1696.65 189.192)">yellow100</text>
    <text x="535.08" y="107.808" style="font-family:'VictorMono-Medium','Victor Mono';font-weight:500;font-size:36px;fill:#96e474" transform="translate(496.009 319.326)">green</text>
    <text x="515.443" y="107.808" style="font-family:'VictorMono-Medium','Victor Mono';font-weight:500;font-size:36px;fill:#78b65d" transform="translate(1696.57 309.192)">#d5f4c7</text>
    <text x="531.807" y="136.172" style="font-family:'VictorMono-Medium','Victor Mono';font-weight:500;font-size:24px;fill:#78b65d" transform="translate(1696.57 309.192)">green100</text>
    <text x="544.898" y="107.808" style="font-family:'VictorMono-Medium','Victor Mono';font-weight:500;font-size:36px;fill:#5df8a6" transform="translate(495.895 445.054)">teal</text>
    <text x="515.443" y="107.808" style="font-family:'VictorMono-Medium','Victor Mono';font-weight:500;font-size:36px;fill:#4ac685" transform="translate(1696.63 431.177)">#befcdb</text>
    <text x="538.353" y="136.172" style="font-family:'VictorMono-Medium','Victor Mono';font-weight:500;font-size:24px;fill:#4ac685" transform="translate(1696.63 431.177)">teal100</text>
    <text x="544.898" y="107.808" style="font-family:'VictorMono-Medium','Victor Mono';font-weight:500;font-size:36px;fill:#54e7f8" transform="translate(495.895 559.326)">cyan</text>
    <text x="515.443" y="107.808" style="font-family:'VictorMono-Medium','Victor Mono';font-weight:500;font-size:36px;fill:#43b9c6" transform="translate(1696.58 549.192)">#bbf5fc</text>
    <text x="538.353" y="136.172" style="font-family:'VictorMono-Medium','Victor Mono';font-weight:500;font-size:24px;fill:#43b9c6" transform="translate(1696.58 549.192)">cyan100</text>
    <text x="544.898" y="107.808" style="font-family:'VictorMono-Medium','Victor Mono';font-weight:500;font-size:36px;fill:#44a3f5" transform="translate(495.306 685.054)">blue</text>
    <text x="515.443" y="107.808" style="font-family:'VictorMono-Medium','Victor Mono';font-weight:500;font-size:36px;fill:#3682c4" transform="translate(1696.63 671.177)">#b4dafb</text>
    <text x="538.353" y="136.172" style="font-family:'VictorMono-Medium','Victor Mono';font-weight:500;font-size:24px;fill:#3682c4" transform="translate(1696.63 671.177)">blue100</text>
    <text x="525.262" y="107.808" style="font-family:'VictorMono-Medium','Victor Mono';font-weight:500;font-size:36px;fill:#9768f8" transform="translate(495.502 802.305)">purple</text>
    <text x="515.443" y="107.808" style="font-family:'VictorMono-Medium','Victor Mono';font-weight:500;font-size:36px;fill:#7953c6" transform="translate(1696.58 789.345)">#d5c3fc</text>
    <text x="525.262" y="136.172" style="font-family:'VictorMono-Medium','Victor Mono';font-weight:500;font-size:24px;fill:#7953c6" transform="translate(1696.58 789.345)">purple100</text>
    <text x="515.443" y="107.808" style="font-family:'VictorMono-Medium','Victor Mono';font-weight:500;font-size:36px;fill:#f76ef1" transform="translate(495.387 922.075)">magenta</text>
    <text x="515.443" y="107.808" style="font-family:'VictorMono-Medium','Victor Mono';font-weight:500;font-size:36px;fill:#c658c1" transform="translate(1696.53 909.192)">#fcc5f9</text>
    <text x="518.716" y="136.172" style="font-family:'VictorMono-Medium','Victor Mono';font-weight:500;font-size:24px;fill:#c658c1" transform="translate(1696.53 909.192)">magenta100</text>
</svg>